<svg width="59" height="59" viewBox="0 0 59 59" fill="none" xmlns="http://www.w3.org/2000/svg">
<path d="M29.0745 58.8526C45.1319 58.8526 58.149 45.6798 58.149 29.4302C58.149 13.1807 45.1319 0.0078125 29.0745 0.0078125C13.0171 0.0078125 0 13.1807 0 29.4302C0 45.6798 13.0171 58.8526 29.0745 58.8526Z" fill="black"/>
<path d="M29.0149 38.8833C28.8394 38.903 28.6834 38.9819 28.5859 39.1198C28.6444 39.3366 28.8199 39.5336 29.1514 39.4942C29.4244 39.4548 29.5414 39.2774 29.5219 39.1395C29.4829 38.903 29.2294 38.8636 29.0149 38.8833Z" fill="#F6CF48"/>
<path d="M34.0891 37.7578C33.9136 37.817 33.7381 37.9155 33.6406 38.0731C33.6991 38.2702 33.8551 38.4475 34.2061 38.349C34.4791 38.2702 34.6156 38.0731 34.5961 37.9155C34.5766 37.7184 34.3231 37.6987 34.0891 37.7578Z" fill="#F6CF48"/>
<path d="M42.6241 33.8304C41.5126 27.0619 44.7886 18.5371 44.7886 18.5371L38.9776 27.1014C33.4201 36.159 30.5146 36.159 30.5146 36.159C24.8011 37.3627 10.3906 26.8646 10.3906 26.8646C13.3351 32.1136 14.5051 35.8432 14.9731 37.9547L15.0901 38.5072C15.2656 39.4742 15.2851 39.9675 15.2851 39.9675C33.3226 43.8155 42.9751 35.488 42.9751 35.488C42.8776 35.1328 42.7801 34.7579 42.7021 34.383L42.6241 33.8304ZM42.6436 23.6283C40.3621 27.4368 37.8076 31.048 34.9606 34.4422C37.2421 30.6336 39.7966 27.0224 42.6436 23.6283ZM13.0036 29.5878C17.1571 32.5675 21.6811 34.8368 26.3611 36.8102C21.4471 35.5078 16.7086 33.12 13.0036 29.5878ZM26.9851 40.2635C26.8681 39.6715 26.7316 39.0992 26.6146 38.5072C26.4781 38.6651 26.3611 38.823 26.2246 38.9808C26.0491 38.8427 25.8931 38.7243 25.7176 38.5862C25.9906 38.2704 26.2636 37.9547 26.5366 37.639C26.7511 37.6192 26.9656 37.6192 27.1606 37.5995C27.3166 38.4678 27.4921 39.336 27.6676 40.224C27.4726 40.224 27.2386 40.2438 26.9851 40.2635ZM29.3056 40.0859C28.4476 40.2043 27.9406 39.632 27.8041 38.8822C27.6481 38.0534 28.0966 37.4811 28.9351 37.3627C29.2666 37.3232 29.5786 37.3627 29.8126 37.4811C29.7346 37.6784 29.6761 37.856 29.5981 38.0534C29.4226 37.9547 29.2666 37.935 29.0326 37.9547C28.7011 37.9942 28.4281 38.2704 28.4866 38.6454C28.4866 38.6651 28.4866 38.6651 28.4866 38.6848C28.5841 38.4875 28.8376 38.3296 29.1106 38.2902C29.6176 38.2112 30.1246 38.448 30.2221 39.0006C30.3196 39.5136 29.9491 39.9872 29.3056 40.0859ZM31.6651 39.632C31.1386 39.7504 30.7291 39.6518 30.4756 39.4544C30.5731 39.2768 30.6706 39.0992 30.7486 38.9216C30.9826 39.0598 31.3141 39.0992 31.5481 39.04C31.8601 38.9808 31.9966 38.823 31.9771 38.6848C31.9576 38.527 31.8211 38.4875 31.4506 38.5664C31.3336 38.5862 31.1191 38.6454 31.0801 38.6454C31.0411 38.448 31.0216 38.2507 30.9826 38.0534C31.0411 38.0534 31.2556 37.9942 31.3531 37.9744C31.6456 37.9152 31.7821 37.8166 31.7626 37.6784C31.7431 37.5206 31.5286 37.4811 31.2556 37.5403C31.0021 37.5995 30.7681 37.7376 30.6121 37.935C30.4756 37.8166 30.3391 37.6982 30.2026 37.5798C30.3976 37.2838 30.7291 37.047 31.2361 36.9483C31.9381 36.7904 32.3866 36.968 32.4646 37.4022C32.5231 37.6982 32.2696 38.0139 31.9576 38.1323C32.2501 38.0928 32.6401 38.2112 32.6986 38.5862C32.7766 39.04 32.3671 39.4742 31.6651 39.632ZM34.3366 38.9216C33.4396 39.1979 32.9716 38.7046 32.8741 37.9547C32.7376 37.1259 33.2056 36.4944 34.0636 36.2379C34.3951 36.1392 34.7266 36.1392 34.9606 36.2182C34.8826 36.4155 34.8046 36.6128 34.7266 36.8299C34.5511 36.7707 34.3756 36.751 34.1611 36.8299C33.8101 36.9286 33.5371 37.2443 33.5956 37.5995C33.5956 37.6192 33.5956 37.6192 33.5956 37.639C33.7126 37.4219 33.9661 37.2246 34.2391 37.1456C34.7461 36.9878 35.2726 37.1259 35.3506 37.6784C35.4091 38.1718 34.9996 38.7046 34.3366 38.9216Z" fill="#FFDA18"/>
<path d="M38.9096 19.1112C38.8706 19.0717 38.8316 19.0125 38.7536 18.9336C38.7926 19.8413 38.1491 21.0648 37.0181 22.0909C35.8676 23.1171 34.6001 23.5907 33.7031 23.4328C33.7616 23.5117 33.8201 23.5709 33.8591 23.6104C34.4831 24.3208 36.1016 23.8867 37.5056 22.6435C38.8901 21.4003 39.5336 19.8216 38.9096 19.1112Z" fill="#F6CF48"/>
<path d="M36.7952 21.8544C38.1992 20.6112 38.8427 19.0128 38.2187 18.3024C37.5947 17.592 35.9567 18.0262 34.5527 19.2694C33.1487 20.5126 32.5052 22.111 33.1292 22.8214C33.7532 23.5318 35.3912 23.0976 36.7952 21.8544Z" fill="#F7E876"/>
<path d="M26.2245 28.5501C26.8871 27.8796 26.35 26.2491 25.0249 24.9082C23.6999 23.5673 22.0887 23.0238 21.4262 23.6943C20.7636 24.3647 21.3007 25.9952 22.6258 27.3361C23.9508 28.677 25.562 29.2205 26.2245 28.5501Z" fill="#F6CF48"/>
<path d="M26.0337 33.5157C24.5517 33.1802 23.4012 32.4106 23.0112 31.6016C22.9917 31.7002 22.9722 31.7792 22.9527 31.8186C22.7382 32.7461 24.0447 33.8314 25.8582 34.2261C27.6717 34.6405 29.3097 34.2261 29.5047 33.2986C29.5242 33.2592 29.5242 33.1802 29.5632 33.0816C28.8807 33.6538 27.5157 33.8512 26.0337 33.5157Z" fill="#F6CF48"/>
<path d="M26.8528 29.8443C25.0198 29.4299 23.3818 29.8443 23.1868 30.7718C22.9723 31.6992 24.2983 32.7846 26.1118 33.199C27.9448 33.6134 29.5828 33.199 29.7778 32.2715C29.9923 31.344 28.6663 30.2587 26.8528 29.8443Z" fill="#F7E876"/>
<path d="M26.1071 19.2483C26.0876 19.2088 26.0486 19.1299 26.0291 19.0312C25.7756 19.8995 24.7811 20.8467 23.3576 21.4387C21.9536 22.0307 20.5886 22.0504 19.7891 21.6163C19.8281 21.715 19.8476 21.7742 19.8671 21.8334C20.2181 22.7016 21.8951 22.8398 23.6306 22.1294C25.3466 21.3992 26.4581 20.1166 26.1071 19.2483Z" fill="#F6CF48"/>
<path d="M23.2227 21.1424C24.9582 20.432 26.0697 19.1296 25.7187 18.2614C25.3677 17.3734 23.6712 17.255 21.9357 17.9654C20.2002 18.6758 19.0887 19.9782 19.4397 20.8464C19.7907 21.7147 21.5067 21.8528 23.2227 21.1424Z" fill="#F7E876"/>
<path d="M17.608 30.6349C17.6665 30.8323 17.7445 31.0296 17.8225 31.2269C18.778 31.7992 19.792 32.3517 20.8255 32.8845C21.235 32.1939 21.274 30.9507 20.8645 29.6285C20.3185 27.8131 19.1485 26.5699 18.2515 26.8659C17.335 27.1421 17.062 28.8195 17.608 30.6349Z" fill="#F6CF48"/>
<path d="M17.3952 30.9691C17.3757 30.8902 17.3172 30.8112 17.2977 30.7323C16.8492 29.2523 16.9467 27.871 17.4537 27.1211C17.3562 27.1408 17.2782 27.1803 17.2392 27.1803C16.4397 27.4368 16.1277 28.8182 16.4787 30.4166C16.7712 30.5942 17.0832 30.7915 17.3952 30.9691Z" fill="#D7AA44"/>
<path d="M29.5223 35.8635C29.8538 35.8635 30.1658 35.8437 30.4388 35.7845C30.4973 35.7845 31.2968 35.6859 32.8373 34.3637C32.8373 33.752 32.6618 33.2587 32.2913 33.0416C31.4723 32.568 30.0683 33.4955 29.1128 35.1333C28.9763 35.3504 28.8788 35.5675 28.7812 35.8043C29.0348 35.824 29.2883 35.8635 29.5223 35.8635Z" fill="#F6CF48"/>
<path d="M33.429 33.8116C33.351 33.7327 33.273 33.6539 33.195 33.5948C33.156 33.5751 33.078 33.5357 33 33.4766C33.078 33.6539 33.0975 33.8707 33.117 34.1071C33.234 34.0086 33.3315 33.9101 33.429 33.8116Z" fill="#D9B246"/>
<path d="M32.2969 31.0877C33.1549 31.7981 34.0909 32.2125 34.8514 32.2717C35.2414 31.7981 35.6704 31.2851 36.1189 30.6733C35.9044 29.9629 35.3194 29.1144 34.4614 28.404C33.0184 27.2003 31.3609 26.8451 30.7564 27.5752C30.1519 28.3251 30.8539 29.884 32.2969 31.0877Z" fill="#F6CF48"/>
<path d="M31.6371 31.8968C32.4756 32.5874 33.3921 33.0018 34.1331 33.0808C34.2891 32.9229 34.4451 32.7453 34.6206 32.548C33.8601 32.4296 32.9631 32.0349 32.1051 31.3245C30.9156 30.3576 30.2331 29.1538 30.2526 28.2461C30.1941 28.325 30.1356 28.3842 30.1161 28.4237C29.5116 29.1538 30.2136 30.7128 31.6371 31.8968Z" fill="#F6CF48"/>
<path d="M39.5251 25.6225L39.9346 25.0108C39.4276 24.3596 38.8231 24.0044 38.3161 24.1623C38.2771 24.182 38.1991 24.2017 38.1016 24.2215C38.6086 24.4188 39.0961 24.9319 39.5251 25.6225Z" fill="#F6CF48"/>
<path d="M37.085 29.3133C37.592 28.5832 38.099 27.7938 38.645 26.9058L39.3275 25.8994C38.7425 24.8536 37.943 24.2418 37.2995 24.4392C36.4025 24.7154 36.11 26.3928 36.6365 28.2082C36.7535 28.6226 36.9095 28.9778 37.085 29.3133Z" fill="#F6CF48"/>
<path d="M31.7482 21.6164C31.7092 21.5967 31.6312 21.5572 31.5532 21.498C31.8847 22.3466 31.6507 23.7082 30.8902 25.05C30.1297 26.3919 29.0572 27.2602 28.1797 27.3983C28.2577 27.4378 28.3357 27.497 28.3747 27.5167C29.1742 27.9903 30.5977 27.0628 31.5337 25.425C32.4502 23.8068 32.5672 22.09 31.7482 21.6164Z" fill="#F6CF48"/>
<path d="M30.6167 24.8914C31.5527 23.2535 31.6502 21.5367 30.8507 21.0631C30.0317 20.5895 28.6277 21.5169 27.6722 23.1548C26.7362 24.7927 26.6387 26.5095 27.4382 26.9831C28.2572 27.4764 29.6807 26.5292 30.6167 24.8914Z" fill="#F7E876"/>
<path d="M25.4661 29.2736C25.5051 29.2341 25.5636 29.1749 25.6221 29.1157C24.7251 29.2144 23.4771 28.6421 22.4046 27.5568C21.3321 26.4714 20.7666 25.2085 20.8641 24.3008C20.7861 24.3797 20.7471 24.4192 20.7081 24.4586C20.0451 25.1296 20.5716 26.7477 21.8976 28.0698C22.5996 28.7802 23.3991 29.2736 24.0816 29.4709C24.4716 29.3525 24.9396 29.2736 25.4661 29.2736Z" fill="#F6CF48"/>
<path d="M27.2442 34.7967C26.7762 34.7967 26.2887 34.7375 25.7817 34.6191C23.6952 34.1455 22.3107 32.9023 22.5642 31.7183L22.7787 30.8105C22.7787 30.7711 22.7787 30.7119 22.7787 30.6724C22.7982 30.5935 22.8177 30.5343 22.8567 30.4751L22.8762 30.3961V30.4159C23.0127 30.1396 23.2467 29.8831 23.5587 29.7055C23.5197 29.6857 23.5002 29.6857 23.4612 29.666C22.8957 30.1199 22.2327 30.4751 21.4527 30.6921C21.5112 31.2052 21.5112 31.6986 21.4527 32.1524C21.3942 32.4879 21.2967 32.7642 21.1797 33.001C23.5392 34.2047 26.3472 35.4084 28.4337 35.6058C28.5312 35.3887 28.6482 35.1716 28.7652 34.9546C28.8822 34.7572 29.0187 34.5599 29.1357 34.3625C28.6872 34.6388 28.0242 34.7967 27.2442 34.7967Z" fill="#975B31"/>
<path d="M29.7401 30.16C29.3891 29.351 29.4086 28.6603 29.7791 28.167L30.4031 27.3974C30.4031 27.3776 30.4226 27.3776 30.4226 27.3579C29.8961 27.792 29.3306 28.0288 28.8431 28.0288C28.5896 28.0288 28.3751 27.9696 28.1606 27.8512L27.3611 27.3776C27.3221 27.3579 27.2831 27.3579 27.2441 27.3184C27.2051 27.2987 27.1856 27.279 27.1661 27.2592L26.9906 27.1606H27.0296C26.2301 26.4304 26.3276 24.7136 27.3221 22.9574C27.5951 22.5035 27.8876 22.0891 28.2191 21.7339C27.8876 21.28 27.5561 20.7867 27.2246 20.2539C27.2246 20.2539 27.1466 22.9574 26.1521 25.6608C26.4056 26.0555 26.6201 26.4502 26.7371 26.8448C26.9711 27.5552 26.9321 28.167 26.6396 28.6011H26.6786L26.5421 28.7392C26.5226 28.759 26.5031 28.7984 26.4836 28.8182C26.4641 28.8379 26.4251 28.8379 26.4056 28.8576L25.9766 29.2918C26.2886 29.3115 26.6006 29.3707 26.9126 29.4299C27.2831 29.5088 27.6341 29.6272 27.9461 29.7456C29.2916 30.2784 30.1496 31.1862 30.1496 32.0544L30.1691 32.0347L30.1301 32.1728C30.1301 32.232 30.1301 32.2715 30.1301 32.3307C30.1106 32.3899 30.0911 32.4491 30.0716 32.5083L29.8961 33.3174C29.8766 33.3766 29.8766 33.416 29.8571 33.4555C30.5006 32.8438 31.1831 32.4688 31.7876 32.4688H31.8071C31.6511 32.3702 31.5146 32.2912 31.3586 32.1728C30.6371 31.6006 30.0716 30.8704 29.7401 30.16Z" fill="#975B31"/>
<path d="M36.2761 28.324C36.1396 27.8504 36.0421 27.3768 36.0031 26.9032C34.8721 26.8638 33.4681 26.5086 31.9276 25.4824C31.9081 25.5219 31.8886 25.5614 31.8691 25.6008C31.5181 26.2126 31.0891 26.7454 30.6406 27.14V27.1598C30.9136 26.923 31.2646 26.7848 31.6936 26.7848C32.5906 26.7848 33.7021 27.2782 34.6966 28.0872C35.4181 28.6792 35.9641 29.3699 36.2761 30.0211C36.4321 29.8238 36.5881 29.6264 36.7246 29.4488C36.5491 29.1134 36.3931 28.7384 36.2761 28.324Z" fill="#975B31"/>
<path d="M39.6084 24.6348L39.0234 24.9308C39.1989 25.1281 39.3744 25.3649 39.5304 25.6214L39.9399 25.0097C39.8229 24.8716 39.7254 24.7334 39.6084 24.6348Z" fill="#D7AA44"/>
<path d="M36.8359 28.7982C36.9139 28.9758 36.9919 29.1534 37.0699 29.3112C37.5769 28.5811 38.0839 27.7918 38.6299 26.9038L39.3124 25.8974C39.1174 25.5619 38.9224 25.2856 38.6884 25.0488L36.8359 28.7982Z" fill="#D7AA44"/>
<path d="M30.6494 35.3113C30.2594 35.41 29.4989 35.5481 28.7969 35.8046C29.0504 35.8244 29.3039 35.8638 29.5184 35.8638C29.8499 35.8638 30.1619 35.8441 30.4349 35.7849C30.4934 35.7849 31.2929 35.6862 32.8334 34.3641C32.8334 34.1273 32.8139 33.9102 32.7554 33.7129C32.2679 34.1668 31.1759 35.1534 30.6494 35.3113Z" fill="#D7AA44"/>
<path d="M33.9484 32.3906L33.4609 32.9424C33.6949 33.0212 33.9094 33.0606 34.1239 33.0803C34.2799 32.9227 34.4359 32.7453 34.6114 32.5483C34.3969 32.5286 34.1629 32.4694 33.9484 32.3906Z" fill="#D7AA44"/>
<path d="M35.0845 31.2066L34.1875 32.1538C34.4215 32.2328 34.636 32.2722 34.8505 32.292C35.2405 31.8184 35.6695 31.3053 36.118 30.6936C36.0595 30.4962 35.9815 30.2989 35.8645 30.1016L35.0845 31.2066Z" fill="#D7AA44"/>
<path d="M27.9844 30.2188C29.5054 31.3633 28.7839 32.942 28.7254 33.1985C29.2909 33.0209 29.6809 32.7052 29.7784 32.2908C29.9344 31.5409 29.1934 30.7318 27.9844 30.2188Z" fill="#F6CF48"/>
<path d="M28.6324 33.5359L28.3594 34.2463C28.9834 34.0687 29.4124 33.753 29.5099 33.2991C29.5294 33.2596 29.5294 33.1807 29.5684 33.082C29.3344 33.2794 29.0224 33.4372 28.6324 33.5359Z" fill="#D7AA44"/>
<path d="M27.0883 24.5762C26.7763 25.701 26.8738 26.6679 27.4588 27.0034C27.7708 27.181 28.1803 27.1612 28.6093 26.9639C28.1998 26.806 27.1858 26.293 27.0883 24.5762Z" fill="#F6CF48"/>
<path d="M29.0182 27.082C28.7257 27.2397 28.4527 27.3579 28.1797 27.3973C28.2577 27.4367 28.3357 27.4958 28.3747 27.5155C28.7452 27.7323 29.2327 27.6535 29.7397 27.3579L29.0182 27.082Z" fill="#D7AA44"/>
<path d="M26.1306 26.3711C26.4426 28.1274 25.1556 28.601 24.7656 28.7194C25.3896 28.9167 25.9161 28.8772 26.2476 28.5418C26.6571 28.1076 26.5791 27.2788 26.1306 26.3711Z" fill="#D7AA44"/>
<path d="M24.2599 28.8574L23.1094 29.0348C23.4409 29.2318 23.7724 29.3895 24.0844 29.4683C24.4744 29.3303 24.9424 29.2712 25.4689 29.2712C25.5079 29.2318 25.5664 29.1727 25.6249 29.1136C25.2349 29.1727 24.7474 29.0742 24.2599 28.8574Z" fill="#D7AA44"/>
<path d="M17.7891 31.1289C17.8086 31.1684 17.8086 31.1881 17.8281 31.2276C18.7836 31.7998 19.7976 32.3524 20.8116 32.8852C20.8701 32.8062 20.9091 32.7076 20.9481 32.5892L17.7891 31.1289Z" fill="#D7AA44"/>
<path d="M23.6306 21.8328C22.0316 22.5038 20.4521 22.4248 19.9646 21.6947C19.9061 21.675 19.8476 21.6355 19.7891 21.6158C19.8281 21.7144 19.8476 21.7736 19.8671 21.8328C20.2181 22.7011 21.8951 22.8392 23.6306 22.1288C25.2296 21.4776 26.2826 20.3134 26.1656 19.4648C26.0486 20.2739 25.0346 21.2408 23.6306 21.8328Z" fill="#D7AA44"/>
<path d="M37.4939 22.2083C36.3629 23.2147 35.0564 23.6883 34.2959 23.4515C34.0814 23.4712 33.8864 23.4712 33.7109 23.4318C33.7694 23.5107 33.8279 23.5699 33.8669 23.6094C34.4909 24.3198 36.1094 23.8856 37.5134 22.6424C38.6444 21.636 39.2684 20.4126 39.1514 19.6035C39.0149 20.3928 38.4299 21.3795 37.4939 22.2083Z" fill="#D7AA44"/>
<path d="M38.9096 19.1112C38.8706 19.0717 38.8316 19.0125 38.7536 18.9336C38.7926 19.8413 38.1491 21.0648 37.0181 22.0909C35.8676 23.1171 34.6001 23.5907 33.7031 23.4328C33.7616 23.5117 33.8201 23.5709 33.8591 23.6104C34.4831 24.3208 36.1016 23.8867 37.5056 22.6435C38.8901 21.4003 39.5336 19.8216 38.9096 19.1112Z" fill="#F6CF48"/>
<path d="M36.7952 21.8544C38.1992 20.6112 38.8427 19.0128 38.2187 18.3024C37.5947 17.592 35.9567 18.0262 34.5527 19.2694C33.1487 20.5126 32.5052 22.111 33.1292 22.8214C33.7532 23.5318 35.3912 23.0976 36.7952 21.8544Z" fill="#F7E876"/>
<path d="M26.2245 28.5501C26.8871 27.8796 26.35 26.2491 25.0249 24.9082C23.6999 23.5673 22.0887 23.0238 21.4262 23.6943C20.7636 24.3647 21.3007 25.9952 22.6258 27.3361C23.9508 28.677 25.562 29.2205 26.2245 28.5501Z" fill="#FFDA18"/>
<path d="M26.0337 33.5157C24.5517 33.1802 23.4012 32.4106 23.0112 31.6016C22.9917 31.7002 22.9722 31.7792 22.9527 31.8186C22.7382 32.7461 24.0447 33.8314 25.8582 34.2261C27.6717 34.6405 29.3097 34.2261 29.5047 33.2986C29.5242 33.2592 29.5242 33.1802 29.5632 33.0816C28.8807 33.6538 27.5157 33.8512 26.0337 33.5157Z" fill="#FFDA18"/>
<path d="M26.8528 29.8443C25.0198 29.4299 23.3818 29.8443 23.1868 30.7718C22.9723 31.6992 24.2983 32.7846 26.1118 33.199C27.9448 33.6134 29.5828 33.199 29.7778 32.2715C29.9923 31.344 28.6663 30.2587 26.8528 29.8443Z" fill="#F7E876"/>
<path d="M26.1071 19.2483C26.0876 19.2088 26.0486 19.1299 26.0291 19.0312C25.7756 19.8995 24.7811 20.8467 23.3576 21.4387C21.9536 22.0307 20.5886 22.0504 19.7891 21.6163C19.8281 21.715 19.8476 21.7742 19.8671 21.8334C20.2181 22.7016 21.8951 22.8398 23.6306 22.1294C25.3466 21.3992 26.4581 20.1166 26.1071 19.2483Z" fill="#FFDA18"/>
<path d="M23.2227 21.1424C24.9582 20.432 26.0697 19.1296 25.7187 18.2614C25.3677 17.3734 23.6712 17.255 21.9357 17.9654C20.2002 18.6758 19.0887 19.9782 19.4397 20.8464C19.7907 21.7147 21.5067 21.8528 23.2227 21.1424Z" fill="#F7E876"/>
<path d="M17.608 30.6349C17.6665 30.8323 17.7445 31.0296 17.8225 31.2269C18.778 31.7992 19.792 32.3517 20.8255 32.8845C21.235 32.1939 21.274 30.9507 20.8645 29.6285C20.3185 27.8131 19.1485 26.5699 18.2515 26.8659C17.335 27.1421 17.062 28.8195 17.608 30.6349Z" fill="#FFDA18"/>
<path d="M17.3952 30.9691C17.3757 30.8902 17.3172 30.8112 17.2977 30.7323C16.8492 29.2523 16.9467 27.871 17.4537 27.1211C17.3562 27.1408 17.2782 27.1803 17.2392 27.1803C16.4397 27.4368 16.1277 28.8182 16.4787 30.4166C16.7712 30.5942 17.0832 30.7915 17.3952 30.9691Z" fill="#D7AA44"/>
<path d="M29.5223 35.8635C29.8538 35.8635 30.1658 35.8437 30.4388 35.7845C30.4973 35.7845 31.2968 35.6859 32.8373 34.3637C32.8373 33.752 32.6618 33.2587 32.2913 33.0416C31.4723 32.568 30.0683 33.4955 29.1128 35.1333C28.9763 35.3504 28.8788 35.5675 28.7812 35.8043C29.0348 35.824 29.2883 35.8635 29.5223 35.8635Z" fill="#FFDA18"/>
<path d="M33.429 33.8116C33.351 33.7327 33.273 33.6539 33.195 33.5948C33.156 33.5751 33.078 33.5357 33 33.4766C33.078 33.6539 33.0975 33.8707 33.117 34.1071C33.234 34.0086 33.3315 33.9101 33.429 33.8116Z" fill="#D9B246"/>
<path d="M32.2969 31.0877C33.1549 31.7981 34.0909 32.2125 34.8514 32.2717C35.2414 31.7981 35.6704 31.2851 36.1189 30.6733C35.9044 29.9629 35.3194 29.1144 34.4614 28.404C33.0184 27.2003 31.3609 26.8451 30.7564 27.5752C30.1519 28.3251 30.8539 29.884 32.2969 31.0877Z" fill="#FFDA18"/>
<path d="M31.6371 31.8968C32.4756 32.5874 33.3921 33.0018 34.1331 33.0808C34.2891 32.9229 34.4451 32.7453 34.6206 32.548C33.8601 32.4296 32.9631 32.0349 32.1051 31.3245C30.9156 30.3576 30.2331 29.1538 30.2526 28.2461C30.1941 28.325 30.1356 28.3842 30.1161 28.4237C29.5116 29.1538 30.2136 30.7128 31.6371 31.8968Z" fill="#FFDA18"/>
<path d="M39.5251 25.6225L39.9346 25.0108C39.4276 24.3596 38.8231 24.0044 38.3161 24.1623C38.2771 24.182 38.1991 24.2017 38.1016 24.2215C38.6086 24.4188 39.0961 24.9319 39.5251 25.6225Z" fill="#FFDA18"/>
<path d="M37.085 29.3133C37.592 28.5832 38.099 27.7938 38.645 26.9058L39.3275 25.8994C38.7425 24.8536 37.943 24.2418 37.2995 24.4392C36.4025 24.7154 36.11 26.3928 36.6365 28.2082C36.7535 28.6226 36.9095 28.9778 37.085 29.3133Z" fill="#FFDA18"/>
<path d="M31.7482 21.6164C31.7092 21.5967 31.6312 21.5572 31.5532 21.498C31.8847 22.3466 31.6507 23.7082 30.8902 25.05C30.1297 26.3919 29.0572 27.2602 28.1797 27.3983C28.2577 27.4378 28.3357 27.497 28.3747 27.5167C29.1742 27.9903 30.5977 27.0628 31.5337 25.425C32.4502 23.8068 32.5672 22.09 31.7482 21.6164Z" fill="#FFDA18"/>
<path d="M30.6167 24.8914C31.5527 23.2535 31.6502 21.5367 30.8507 21.0631C30.0317 20.5895 28.6277 21.5169 27.6722 23.1548C26.7362 24.7927 26.6387 26.5095 27.4382 26.9831C28.2572 27.4764 29.6807 26.5292 30.6167 24.8914Z" fill="#F7E876"/>
<path d="M25.4661 29.2736C25.5051 29.2341 25.5636 29.1749 25.6221 29.1157C24.7251 29.2144 23.4771 28.6421 22.4046 27.5568C21.3321 26.4714 20.7666 25.2085 20.8641 24.3008C20.7861 24.3797 20.7471 24.4192 20.7081 24.4586C20.0451 25.1296 20.5716 26.7477 21.8976 28.0698C22.5996 28.7802 23.3991 29.2736 24.0816 29.4709C24.4716 29.3525 24.9396 29.2736 25.4661 29.2736Z" fill="#F6CF48"/>
<path d="M27.2442 34.7967C26.7762 34.7967 26.2887 34.7375 25.7817 34.6191C23.6952 34.1455 22.3107 32.9023 22.5642 31.7183L22.7787 30.8105C22.7787 30.7711 22.7787 30.7119 22.7787 30.6724C22.7982 30.5935 22.8177 30.5343 22.8567 30.4751L22.8762 30.3961V30.4159C23.0127 30.1396 23.2467 29.8831 23.5587 29.7055C23.5197 29.6857 23.5002 29.6857 23.4612 29.666C22.8957 30.1199 22.2327 30.4751 21.4527 30.6921C21.5112 31.2052 21.5112 31.6986 21.4527 32.1524C21.3942 32.4879 21.2967 32.7642 21.1797 33.001C23.5392 34.2047 26.3472 35.4084 28.4337 35.6058C28.5312 35.3887 28.6482 35.1716 28.7652 34.9546C28.8822 34.7572 29.0187 34.5599 29.1357 34.3625C28.6872 34.6388 28.0242 34.7967 27.2442 34.7967Z" fill="#975B31"/>
<path d="M29.7401 30.16C29.3891 29.351 29.4086 28.6603 29.7791 28.167L30.4031 27.3974C30.4031 27.3776 30.4226 27.3776 30.4226 27.3579C29.8961 27.792 29.3306 28.0288 28.8431 28.0288C28.5896 28.0288 28.3751 27.9696 28.1606 27.8512L27.3611 27.3776C27.3221 27.3579 27.0296 27.1606 27.0296 27.1606C26.2301 26.4304 26.3276 24.7136 27.3221 22.9574C27.5951 22.5035 27.8876 22.0891 28.2191 21.7339C27.8876 21.28 27.5561 20.7867 27.2246 20.2539C27.2246 20.2539 27.1466 22.9574 26.1521 25.6608C26.4056 26.0555 26.6201 26.4502 26.7371 26.8448C26.9711 27.5552 26.9321 28.167 26.6396 28.6011C26.6396 28.6011 26.4251 28.8576 26.4056 28.8774L25.9766 29.3115C26.2886 29.3312 26.6006 29.3904 26.9126 29.4496C27.2831 29.5286 27.6341 29.647 27.9461 29.7654C29.2916 30.2982 30.1496 31.2059 30.1496 32.0742V32.1926C30.1496 32.2518 30.0911 32.4688 30.0716 32.528L29.8961 33.3371C29.8766 33.3963 29.8766 33.4358 29.8571 33.4752C30.5006 32.8635 31.1831 32.4886 31.7876 32.4886H31.8071C31.6511 32.3899 31.5146 32.311 31.3586 32.1926C30.6371 31.6006 30.0716 30.8704 29.7401 30.16Z" fill="#975B31"/>
<path d="M36.2761 28.324C36.1396 27.8504 36.0421 27.3768 36.0031 26.9032C34.8721 26.8638 33.4681 26.5086 31.9276 25.4824C31.9081 25.5219 31.8886 25.5614 31.8691 25.6008C31.5181 26.2126 31.0891 26.7454 30.6406 27.14V27.1598C30.9136 26.923 31.2646 26.7848 31.6936 26.7848C32.5906 26.7848 33.7021 27.2782 34.6966 28.0872C35.4181 28.6792 35.9641 29.3699 36.2761 30.0211C36.4321 29.8238 36.5881 29.6264 36.7246 29.4488C36.5491 29.1134 36.3931 28.7384 36.2761 28.324Z" fill="#975B31"/>
<path d="M39.6084 24.6348L39.0234 24.9308C39.1989 25.1281 39.3744 25.3649 39.5304 25.6214L39.9399 25.0097C39.8229 24.8716 39.7254 24.7334 39.6084 24.6348Z" fill="#D7AA44"/>
<path d="M36.8359 28.7982C36.9139 28.9758 36.9919 29.1534 37.0699 29.3112C37.5769 28.5811 38.0839 27.7918 38.6299 26.9038L39.3124 25.8974C39.1174 25.5619 38.9224 25.2856 38.6884 25.0488L36.8359 28.7982Z" fill="#D7AA44"/>
<path d="M30.6494 35.3113C30.2594 35.41 29.4989 35.5481 28.7969 35.8046C29.0504 35.8244 29.3039 35.8638 29.5184 35.8638C29.8499 35.8638 30.1619 35.8441 30.4349 35.7849C30.4934 35.7849 31.2929 35.6862 32.8334 34.3641C32.8334 34.1273 32.8139 33.9102 32.7554 33.7129C32.2679 34.1668 31.1759 35.1534 30.6494 35.3113Z" fill="#D7AA44"/>
<path d="M33.9484 32.3906L33.4609 32.9424C33.6949 33.0212 33.9094 33.0606 34.1239 33.0803C34.2799 32.9227 34.4359 32.7453 34.6114 32.5483C34.3969 32.5286 34.1629 32.4694 33.9484 32.3906Z" fill="#D7AA44"/>
<path d="M35.0845 31.2066L34.1875 32.1538C34.4215 32.2328 34.636 32.2722 34.8505 32.292C35.2405 31.8184 35.6695 31.3053 36.118 30.6936C36.0595 30.4962 35.9815 30.2989 35.8645 30.1016L35.0845 31.2066Z" fill="#D7AA44"/>
<path d="M27.9844 30.2188C29.5054 31.3633 28.7839 32.942 28.7254 33.1985C29.2909 33.0209 29.6809 32.7052 29.7784 32.2908C29.9344 31.5409 29.1934 30.7318 27.9844 30.2188Z" fill="#FFDA18"/>
<path d="M28.6324 33.5359L28.3594 34.2463C28.9834 34.0687 29.4124 33.753 29.5099 33.2991C29.5294 33.2596 29.5294 33.1807 29.5684 33.082C29.3344 33.2794 29.0224 33.4372 28.6324 33.5359Z" fill="#D7AA44"/>
<path d="M27.0883 24.5762C26.7763 25.701 26.8738 26.6679 27.4588 27.0034C27.7708 27.181 28.1803 27.1612 28.6093 26.9639C28.1998 26.806 27.1858 26.293 27.0883 24.5762Z" fill="#F6CF48"/>
<path d="M29.0182 27.082C28.7257 27.2397 28.4527 27.3579 28.1797 27.3973C28.2577 27.4367 28.3357 27.4958 28.3747 27.5155C28.7452 27.7323 29.2327 27.6535 29.7397 27.3579L29.0182 27.082Z" fill="#D7AA44"/>
<path d="M26.1306 26.3711C26.4426 28.1274 25.1556 28.601 24.7656 28.7194C25.3896 28.9167 25.9161 28.8772 26.2476 28.5418C26.6571 28.1076 26.5791 27.2788 26.1306 26.3711Z" fill="#D7AA44"/>
<path d="M24.2599 28.8574L23.1094 29.0348C23.4409 29.2318 23.7724 29.3895 24.0844 29.4683C24.4744 29.3303 24.9424 29.2712 25.4689 29.2712C25.5079 29.2318 25.5664 29.1727 25.6249 29.1136C25.2349 29.1727 24.7474 29.0742 24.2599 28.8574Z" fill="#D7AA44"/>
<path d="M17.7891 31.1289C17.8086 31.1684 17.8086 31.1881 17.8281 31.2276C18.7836 31.7998 19.7976 32.3524 20.8116 32.8852C20.8701 32.8062 20.9091 32.7076 20.9481 32.5892L17.7891 31.1289Z" fill="#D7AA44"/>
<path d="M23.6306 21.8328C22.0316 22.5038 20.4521 22.4248 19.9646 21.6947C19.9061 21.675 19.8476 21.6355 19.7891 21.6158C19.8281 21.7144 19.8476 21.7736 19.8671 21.8328C20.2181 22.7011 21.8951 22.8392 23.6306 22.1288C25.2296 21.4776 26.2826 20.3134 26.1656 19.4648C26.0486 20.2739 25.0346 21.2408 23.6306 21.8328Z" fill="#D7AA44"/>
<path d="M37.4939 22.2083C36.3629 23.2147 35.0564 23.6883 34.2959 23.4515C34.0814 23.4712 33.8864 23.4712 33.7109 23.4318C33.7694 23.5107 33.8279 23.5699 33.8669 23.6094C34.4909 24.3198 36.1094 23.8856 37.5134 22.6424C38.6444 21.636 39.2684 20.4126 39.1514 19.6035C39.0149 20.3928 38.4299 21.3795 37.4939 22.2083Z" fill="#D7AA44"/>
<path d="M7.79637 27.9899L7.13338 27.5163C7.21137 27.4176 7.30888 27.2992 7.32838 27.1216C7.34788 26.9243 7.23087 26.7664 7.01637 26.727L5.04688 26.4902L5.16387 25.543L7.15287 25.7798C7.95237 25.8784 8.24487 26.3915 8.16687 27.1216C8.12787 27.4571 8.01087 27.7728 7.79637 27.9899Z" fill="#00F9F4"/>
<path d="M7.36651 22.6616C6.46951 22.3064 6.13801 21.3592 6.48901 20.4712C6.84001 19.5634 7.71751 19.1096 8.61451 19.4648C9.51151 19.82 9.84301 20.7672 9.49201 21.6552C9.14101 22.5432 8.26351 23.0168 7.36651 22.6616ZM8.26351 20.3528C7.85401 20.1949 7.42501 20.333 7.26901 20.7672C7.11301 21.2013 7.30801 21.596 7.71751 21.7538C8.12701 21.9117 8.55601 21.7736 8.71201 21.3394C8.86801 20.9053 8.67301 20.5106 8.26351 20.3528Z" fill="#00F9F4"/>
<path d="M12.5373 16.2082L11.2503 16.1095L11.3283 16.3858L12.0108 16.9186L11.4453 17.6684L8.96875 15.774L9.53425 15.0044L10.4703 15.7148L10.0412 14.3532L10.7433 13.4258L11.1918 15.261L13.2588 15.2807L12.5373 16.2082Z" fill="#00F9F4"/>
<path d="M15.0633 13.4662L13.1328 10.9995L14.9853 9.51953L15.4923 10.1707L14.3808 11.0587L14.5758 11.2955L15.6678 10.4273L16.1748 11.0785L15.0828 11.9467L15.2973 12.223L16.4088 11.335L16.9158 11.9862L15.0633 13.4662Z" fill="#00F9F4"/>
<path d="M20.8783 9.81456L20.0983 9.08443L19.7863 9.22256L20.1763 10.1303L19.3183 10.5052L18.0703 7.62416L19.5913 6.95323C20.2543 6.65723 20.8198 6.95323 21.0343 7.48603C21.2488 7.97936 21.0733 8.37403 20.8978 8.59109L21.8533 9.38043L20.8783 9.81456ZM20.1568 7.88069C20.0983 7.72283 19.9228 7.72283 19.7863 7.78203L19.2598 8.01883L19.4548 8.47269L19.9813 8.23589C20.1178 8.15696 20.2348 8.03856 20.1568 7.88069Z" fill="#00F9F4"/>
<path d="M28.0004 6.57912C28.0199 5.61218 28.7804 4.98072 29.7554 5.00045C30.5744 5.02018 30.9644 5.51352 31.1399 5.94765L30.3209 6.30285C30.2429 6.06605 30.0089 5.82925 29.7359 5.82925C29.2874 5.80952 28.9754 6.16472 28.9559 6.59885C28.9364 7.03298 29.2289 7.38818 29.6969 7.40792C29.9699 7.40792 30.2234 7.21058 30.3014 6.97378L31.1009 7.36845C30.9059 7.78285 30.4769 8.27618 29.6579 8.25645C28.7024 8.23672 27.9809 7.54605 28.0004 6.57912Z" fill="#00F9F4"/>
<path d="M35.7 9.28308L36.051 8.13854L34.998 7.80308L34.647 8.94761L33.75 8.67134L34.6665 5.67188L35.5635 5.94814L35.232 7.01374L36.285 7.34921L36.6165 6.28361L37.5135 6.55987L36.597 9.57908L35.7 9.28308Z" fill="#00F9F4"/>
<path d="M40.9421 11.966L41.0396 11.5911L40.1036 10.9793L39.8111 11.2161L38.9141 10.6241L41.5661 8.61133L42.5606 9.26253L41.8196 12.5383L40.9421 11.966ZM41.5661 9.73613L40.7666 10.4268L41.2736 10.7623L41.5661 9.73613Z" fill="#00F9F4"/>
<path d="M44.8849 15.5775L45.3334 14.5909L45.0994 14.3343L44.3584 15.0053L43.7344 14.2949L46.0549 12.2031L47.1664 13.4661C47.6539 14.0186 47.5564 14.6303 47.1079 15.025C46.6984 15.3802 46.2889 15.3407 46.0354 15.2421L45.5869 16.4063L44.8849 15.5775ZM46.4839 14.2751C46.6009 14.1567 46.5619 13.9989 46.4644 13.8805L46.0744 13.4463L45.7039 13.7818L46.0939 14.2159C46.1914 14.3343 46.3474 14.3935 46.4839 14.2751Z" fill="#00F9F4"/>
<path d="M47.1328 18.7337L49.9018 17.2734L50.3308 18.122L48.3028 19.2073L48.8488 20.2729L48.1273 20.6478L47.1328 18.7337Z" fill="#00F9F4"/>
<path d="M49.0547 23.2938L52.0577 22.4453L52.3112 23.3728L49.3082 24.2213L49.0547 23.2938Z" fill="#00F9F4"/>
<path d="M49.8516 27.1014L52.9521 26.9238L53.0691 29.3116L52.2501 29.351L52.1721 27.9105L51.8601 27.9302L51.9381 29.3313L51.1191 29.3708L51.0411 27.9697L50.7096 27.9894L50.7876 29.43L49.9686 29.4694L49.8516 27.1014Z" fill="#00F9F4"/>
<path d="M19.0681 50.1104C19.4191 49.2027 20.3551 48.8869 21.2521 49.2421C22.0126 49.5579 22.2076 50.1499 22.2271 50.6235L21.3301 50.6629C21.3496 50.4064 21.1936 50.1104 20.9401 50.0117C20.5111 49.8341 20.1016 50.0512 19.9456 50.4656C19.7896 50.88 19.9261 51.3141 20.3551 51.472C20.6086 51.5707 20.9206 51.472 21.0766 51.2747L21.6811 51.9259C21.3496 52.2416 20.7841 52.5573 20.0236 52.2416C19.1461 51.9061 18.6976 51.0181 19.0681 50.1104Z" fill="#FFDA18"/>
<path d="M24.5859 53.5437L25.0149 50.4258L25.9509 50.5639L25.6389 52.853L26.8089 53.0108L26.6919 53.8397L24.5859 53.5437Z" fill="#FFDA18"/>
<path d="M29.8512 52.655L29.6562 50.8001L30.6118 50.7014L30.7873 52.5169C30.8263 52.8129 31.0408 53.03 31.4308 52.9905C31.8208 52.951 31.9768 52.6945 31.9573 52.3985L31.7818 50.583L32.7373 50.4844L32.9323 52.3196C33.0103 53.1089 32.5813 53.7206 31.5478 53.8193C30.4753 53.9574 29.9292 53.4444 29.8512 52.655Z" fill="#FFDA18"/>
<path d="M36.4982 52.7549L35.3672 49.8344L37.1222 49.1437C37.7267 48.9069 38.1362 49.2029 38.2727 49.5581C38.4092 49.9133 38.2922 50.2488 38.0387 50.4264C38.3702 50.3474 38.7212 50.5448 38.8577 50.9197C39.0137 51.3341 38.8967 51.8274 38.3117 52.0445L36.4982 52.7549ZM37.4342 50.0514C37.3952 49.9528 37.2782 49.9133 37.2002 49.9528L36.5177 50.229L36.6542 50.5645L37.3367 50.2882C37.4342 50.2488 37.4927 50.1501 37.4342 50.0514ZM37.9217 51.1368C37.8827 51.0381 37.7657 50.9789 37.6487 51.0381L36.9467 51.3144L37.0832 51.6893L37.7852 51.413C37.9217 51.3538 37.9607 51.2354 37.9217 51.1368Z" fill="#FFDA18"/>
<path d="M42.0031 48.7306L41.5156 48.0202C46.3516 44.6064 49.7056 39.2981 50.7196 33.457L51.5776 33.6149C50.5051 39.673 47.0146 45.1786 42.0031 48.7306Z" fill="white"/>
<path d="M15.9836 49.0258C10.0556 45.0396 6.33106 38.6658 5.72656 31.5223L6.58456 31.4434C7.15006 38.3106 10.7576 44.4674 16.4516 48.2956L15.9836 49.0258Z" fill="white"/>
<path d="M43.1273 36.0215C42.0158 36.9095 35.7173 41.4876 24.5633 41.4876C21.5798 41.4876 18.4598 41.1522 15.3203 40.4812L15.3983 42.4348V42.4546C33.8063 46.3815 43.6538 37.8764 43.6538 37.8764C43.6343 37.7778 43.5953 37.6988 43.5758 37.6002L43.1273 36.0215Z" fill="#FFDA18"/>
<path d="M43.4822 37.3047C42.1367 38.3703 32.4257 45.3756 15.3827 41.7447C15.3827 41.7447 15.3827 41.7447 15.3827 41.725L15.3242 40.5015C15.3047 40.5015 15.3047 40.5015 15.3047 40.5015L15.3827 42.4551V42.4748C33.7907 46.4018 43.6382 37.8967 43.6382 37.8967C43.6187 37.798 43.5797 37.7191 43.5602 37.6204L43.4822 37.3047Z" fill="#D7AA44"/>
<path d="M30.2434 19.7606C30.1069 19.5632 29.9899 19.3462 29.9119 19.1094C29.8339 19.3462 29.7169 19.5632 29.5804 19.7606C29.2879 20.1947 28.9174 20.4512 28.5859 20.5104C28.9174 20.5696 29.2879 20.8262 29.5804 21.2603C29.7169 21.4576 29.8339 21.6747 29.9119 21.9115C29.9899 21.6747 30.1069 21.4576 30.2434 21.2603C30.5359 20.8262 30.9064 20.5696 31.2379 20.5104C30.8869 20.4512 30.5359 20.1947 30.2434 19.7606Z" fill="white"/>
<path d="M34.6653 27.1414C34.5288 26.9441 34.4118 26.727 34.3338 26.4902C34.2558 26.727 34.1388 26.9441 34.0023 27.1414C33.7098 27.5756 33.3393 27.8321 33.0078 27.8913C33.3393 27.9505 33.7098 28.207 34.0023 28.6412C34.1388 28.8385 34.2558 29.0556 34.3338 29.2924C34.4118 29.0556 34.5288 28.8385 34.6653 28.6412C34.9578 28.207 35.3283 27.9505 35.6598 27.8913C35.3283 27.8321 34.9578 27.5756 34.6653 27.1414Z" fill="white"/>
<path d="M22.6575 26.9832C22.521 26.7859 22.404 26.5688 22.326 26.332C22.248 26.5688 22.131 26.7859 21.9945 26.9832C21.702 27.4174 21.3315 27.6739 21 27.7331C21.3315 27.7923 21.702 28.0488 21.9945 28.483C22.131 28.6803 22.248 28.8974 22.326 29.1342C22.404 28.8974 22.521 28.6803 22.6575 28.483C22.95 28.0488 23.3205 27.7923 23.652 27.7331C23.301 27.6739 22.95 27.4174 22.6575 26.9832Z" fill="white"/>
</svg>
