<svg width="95" height="43" viewBox="0 0 95 43" fill="none" xmlns="http://www.w3.org/2000/svg">
<g clip-path="url(#clip0_2914_58465)">
<path d="M28.4206 0.128906L17.4297 27.3637H24.0242L26.2224 22.2112H39.4116V27.3637H45.2734V0.128906H28.4206ZM28.4206 16.3226L32.4506 6.0175H39.4116V16.3226H28.4206Z" fill="white"/>
<path d="M23.2961 0.128906L12.3051 27.3637H9.00781L19.9988 0.128906H23.2961Z" fill="white"/>
<path d="M16.3318 0.128906L5.34087 27.3637H0.578125L11.5691 0.128906H16.3318Z" fill="white"/>
<path d="M73.8487 0.128906L62.8578 27.3637H48.2031V0.128906H54.065V21.4751H58.8278L67.2541 0.128906H73.8487Z" fill="white"/>
<path d="M94.3672 0.128906V8.96179H88.5053V6.0175H81.178L75.3162 21.4751H88.7984V17.7947H82.6435L85.208 11.9061H94.3672V27.3637H66.5234L77.5143 0.128906H94.3672Z" fill="white"/>
<path d="M2.54627 37.6992H3.19841L4.89643 42.0872H4.17046L3.70904 40.8944H2.02333L1.56806 42.0872H0.835938L2.54627 37.6992ZM3.57369 40.3814L2.87234 38.4593L2.14637 40.3814H3.57369Z" fill="white"/>
<path d="M7.28884 42.1182C6.94431 42.1182 6.65106 42.0584 6.40907 41.9389C6.16707 41.8194 5.97226 41.6566 5.82461 41.4506C5.67694 41.2405 5.57032 41.0056 5.50469 40.7461C5.43907 40.4824 5.40625 40.2084 5.40625 39.9242V37.6992H6.09531V39.9242C6.09531 40.126 6.11581 40.3217 6.15682 40.5112C6.19784 40.6966 6.26347 40.8635 6.35369 41.0119C6.44393 41.1601 6.56493 41.2776 6.71668 41.3641C6.87254 41.4506 7.06325 41.4939 7.28884 41.4939C7.51852 41.4939 7.70925 41.4506 7.86101 41.3641C8.01686 41.2735 8.13989 41.154 8.23016 41.0056C8.32036 40.8532 8.38396 40.6843 8.42089 40.4989C8.46184 40.3134 8.48236 40.1219 8.48236 39.9242V37.6992H9.17758V39.9242C9.17758 40.2249 9.14065 40.507 9.06686 40.7708C8.99711 41.0345 8.88639 41.2673 8.73464 41.4692C8.587 41.671 8.39217 41.8297 8.15014 41.9451C7.9123 42.0604 7.62517 42.1182 7.28884 42.1182Z" fill="white"/>
<path d="M13.5114 38.311H12.0596V42.0872H11.3643V38.311H9.90625V37.6992H13.5114V38.311Z" fill="white"/>
<path d="M16.0137 42.1178C15.702 42.1178 15.4169 42.056 15.1586 41.9324C14.9042 41.8088 14.6848 41.642 14.5002 41.4318C14.3157 41.2175 14.1722 40.9785 14.0696 40.7149C13.9711 40.447 13.9219 40.1731 13.9219 39.8929C13.9219 39.6003 13.9752 39.3222 14.0819 39.0585C14.1886 38.7907 14.3362 38.5538 14.5249 38.3478C14.7136 38.1376 14.935 37.9728 15.1893 37.8533C15.4477 37.7297 15.7266 37.668 16.026 37.668C16.3378 37.668 16.6207 37.7318 16.875 37.8595C17.1334 37.9872 17.3529 38.1583 17.5333 38.3725C17.7179 38.5868 17.8594 38.8257 17.9578 39.0894C18.0604 39.3531 18.1116 39.623 18.1116 39.8991C18.1116 40.1916 18.0583 40.4717 17.9516 40.7395C17.8491 41.0033 17.7035 41.2402 17.5149 41.4503C17.3261 41.6563 17.1026 41.8191 16.8442 41.9385C16.5899 42.0581 16.3131 42.1178 16.0137 42.1178ZM14.6233 39.8929C14.6233 40.1689 14.6807 40.4305 14.7955 40.6778C14.9104 40.9208 15.0703 41.1186 15.2754 41.2711C15.4846 41.4194 15.7327 41.4936 16.0198 41.4936C16.2371 41.4936 16.432 41.4482 16.6043 41.3576C16.7766 41.267 16.9222 41.1455 17.0412 40.9929C17.1601 40.8364 17.2503 40.6634 17.3118 40.4738C17.3733 40.2843 17.4041 40.0906 17.4041 39.8929C17.4041 39.6168 17.3467 39.3573 17.2319 39.1141C17.121 38.871 16.9611 38.6753 16.7519 38.527C16.5428 38.3746 16.2987 38.2983 16.0198 38.2983C15.7983 38.2983 15.6015 38.3436 15.4292 38.4342C15.2569 38.5249 15.1114 38.6465 14.9924 38.7989C14.8735 38.9514 14.7811 39.1224 14.7155 39.3119C14.6541 39.5015 14.6233 39.6951 14.6233 39.8929Z" fill="white"/>
<path d="M22.7197 42.0872V38.96L21.434 41.3332H21.0278L19.7359 38.96V42.0872H19.0469V37.6992H19.7852L21.2309 40.3814L22.6766 37.6992H23.4149V42.0872H22.7197Z" fill="white"/>
<path d="M25.8743 37.6992H26.5266L28.2245 42.0872H27.4986L27.0371 40.8944H25.3514L24.8962 42.0872H24.1641L25.8743 37.6992ZM26.9018 40.3814L26.2004 38.4593L25.4745 40.3814H26.9018Z" fill="white"/>
<path d="M31.7693 38.311H30.3173V42.0872H29.6222V38.311H28.1641V37.6992H31.7693V38.311Z" fill="white"/>
<path d="M32.5703 42.0872V37.6992H33.2593V42.0872H32.5703Z" fill="white"/>
<path d="M34.1875 39.8636C34.1875 39.5958 34.2347 39.3321 34.329 39.0725C34.4234 38.8129 34.5608 38.5781 34.7412 38.368C34.9258 38.1578 35.1473 37.9909 35.4057 37.8673C35.6681 37.7396 35.9675 37.6758 36.3038 37.6758C36.6976 37.6758 37.038 37.7643 37.3252 37.9415C37.6123 38.1186 37.8255 38.3494 37.965 38.6337L37.4236 38.9983C37.3416 38.8212 37.237 38.6831 37.1098 38.5843C36.9868 38.4812 36.8514 38.4091 36.7038 38.368C36.5603 38.3226 36.4187 38.2999 36.2793 38.2999C36.0496 38.2999 35.8486 38.3474 35.6764 38.4421C35.5041 38.5328 35.3585 38.6543 35.2396 38.8067C35.1246 38.9592 35.0365 39.1302 34.975 39.3197C34.9176 39.5093 34.8889 39.6988 34.8889 39.8883C34.8889 40.1726 34.9484 40.4384 35.0673 40.6856C35.1903 40.9287 35.3565 41.1265 35.5656 41.2789C35.7789 41.4272 36.0229 41.5014 36.2978 41.5014C36.4372 41.5014 36.5828 41.4767 36.7346 41.4272C36.8863 41.3778 37.0257 41.3016 37.1529 41.1986C37.2801 41.0915 37.3826 40.9513 37.4606 40.7783L38.0327 41.1059C37.9425 41.3242 37.801 41.5095 37.6082 41.662C37.4195 41.8146 37.2062 41.9299 36.9684 42.0081C36.7346 42.0865 36.5028 42.1256 36.2731 42.1256C35.9655 42.1256 35.6845 42.0617 35.4303 41.934C35.176 41.8022 34.9565 41.6291 34.772 41.4149C34.5875 41.1965 34.4439 40.9534 34.3414 40.6856C34.2389 40.4137 34.1875 40.1396 34.1875 39.8636Z" fill="white"/>
<path d="M40.6852 37.6992L42.0017 41.2405L43.3122 37.6992H44.0442L42.3278 42.0872H41.6756L39.9531 37.6992H40.6852Z" fill="white"/>
<path d="M47.793 41.4754V42.0872H44.7969V37.6992H47.7376V38.311H45.4858V39.5595H47.4361V40.1342H45.4858V41.4754H47.793Z" fill="white"/>
<path d="M49.4078 38.9846V42.0872H48.7188V37.6992H49.2847L51.758 40.8696V37.7054H52.4532V42.0872H51.8503L49.4078 38.9846Z" fill="white"/>
<path d="M56.8552 38.311H55.4033V42.0872H54.7081V38.311H53.25V37.6992H56.8552V38.311Z" fill="white"/>
<path d="M59.4764 42.1182C59.1318 42.1182 58.8386 42.0584 58.5965 41.9389C58.3546 41.8194 58.1598 41.6566 58.0121 41.4506C57.8645 41.2405 57.7578 41.0056 57.6922 40.7461C57.6265 40.4824 57.5938 40.2084 57.5938 39.9242V37.6992H58.2828V39.9242C58.2828 40.126 58.3033 40.3217 58.3443 40.5112C58.3854 40.6966 58.4509 40.8635 58.5412 41.0119C58.6314 41.1601 58.7524 41.2776 58.9041 41.3641C59.0601 41.4506 59.2507 41.4939 59.4764 41.4939C59.7061 41.4939 59.8968 41.4506 60.0486 41.3641C60.2044 41.2735 60.3274 41.154 60.4177 41.0056C60.5079 40.8532 60.5715 40.6843 60.6084 40.4989C60.6494 40.3134 60.6699 40.1219 60.6699 39.9242V37.6992H61.3651V39.9242C61.3651 40.2249 61.3282 40.507 61.2544 40.7708C61.1847 41.0345 61.0739 41.2673 60.9221 41.4692C60.7744 41.671 60.5797 41.8297 60.3377 41.9451C60.0997 42.0604 59.8127 42.1182 59.4764 42.1182Z" fill="white"/>
<path d="M62.4922 42.0872V37.6992H64.3933C64.5901 37.6992 64.7706 37.7404 64.9347 37.8227C65.0987 37.9052 65.2402 38.0144 65.3591 38.1503C65.4823 38.2863 65.5765 38.4387 65.6422 38.6076C65.7119 38.7766 65.7468 38.9496 65.7468 39.1268C65.7468 39.3246 65.7098 39.512 65.636 39.6892C65.5663 39.8623 65.4679 40.0127 65.3406 40.1404C65.2135 40.2682 65.0638 40.3608 64.8916 40.4185L65.919 42.0872H65.1439L64.1964 40.5606H63.1812V42.0872H62.4922ZM63.1812 39.9488H64.3871C64.5143 39.9488 64.6271 39.9117 64.7255 39.8375C64.8239 39.7593 64.9018 39.6583 64.9593 39.5347C65.0166 39.4112 65.0453 39.2752 65.0453 39.1268C65.0453 38.9744 65.0126 38.8384 64.947 38.7189C64.8814 38.5954 64.7952 38.4964 64.6886 38.4223C64.5819 38.3481 64.4692 38.311 64.3502 38.311H63.1812V39.9488Z" fill="white"/>
<path d="M69.7774 41.4754V42.0872H66.7812V37.6992H69.7221V38.311H67.4704V39.5595H69.4206V40.1342H67.4704V41.4754H69.7774Z" fill="white"/>
<path d="M74.219 42.1178C73.9274 42.1178 73.6571 42.0581 73.4068 41.9385C73.1607 41.8191 72.9434 41.6543 72.7548 41.4442C72.5702 41.234 72.4246 40.995 72.3179 40.7272C72.2154 40.4595 72.1641 40.1751 72.1641 39.8743C72.1641 39.5776 72.2154 39.2975 72.3179 39.0338C72.4204 38.766 72.566 38.5311 72.7548 38.3292C72.9434 38.1232 73.1628 37.9625 73.413 37.8472C73.6673 37.7277 73.9443 37.668 74.2439 37.668C74.6579 37.668 75.0067 37.7565 75.2895 37.9337C75.5724 38.1067 75.7878 38.3375 75.9358 38.6259L75.4061 39.0091C75.2874 38.7701 75.1233 38.5909 74.9144 38.4713C74.7048 38.3519 74.4755 38.2921 74.2249 38.2921C73.9501 38.2921 73.7104 38.3684 73.5053 38.5209C73.3002 38.6691 73.1423 38.8649 73.0316 39.108C72.9208 39.3511 72.8655 39.6127 72.8655 39.8929C72.8655 40.1895 72.927 40.4595 73.05 40.7024C73.173 40.9415 73.3392 41.1331 73.5484 41.2773C73.7616 41.4215 74.0036 41.4936 74.274 41.4936C74.7254 41.4936 75.1313 41.2773 75.4926 40.8447V40.3811H74.5759V39.8681H76.0706V42.0869H75.4926V41.543C75.1276 41.9262 74.7026 42.1178 74.219 42.1178Z" fill="white"/>
<path d="M77.0703 42.0872V37.6992H78.971C79.1682 37.6992 79.3484 37.7404 79.5125 37.8227C79.6766 37.9052 79.8181 38.0144 79.9368 38.1503C80.0598 38.2863 80.1544 38.4387 80.2203 38.6076C80.2899 38.7766 80.3243 38.9496 80.3243 39.1268C80.3243 39.3246 80.2878 39.512 80.2138 39.6892C80.1441 39.8623 80.0459 40.0127 79.9185 40.1404C79.7917 40.2682 79.6415 40.3608 79.4692 40.4185L80.4973 42.0872H79.7221L78.7746 40.5606H77.759V42.0872H77.0703ZM77.759 39.9488H78.9651C79.0919 39.9488 79.2047 39.9117 79.3036 39.8375C79.4019 39.7593 79.4796 39.6583 79.5375 39.5347C79.5946 39.4112 79.6232 39.2752 79.6232 39.1268C79.6232 38.9744 79.5902 38.8384 79.5249 38.7189C79.459 38.5954 79.3733 38.4964 79.2663 38.4223C79.1601 38.3481 79.0472 38.311 78.9278 38.311H77.759V39.9488Z" fill="white"/>
<path d="M83.1545 42.1178C82.8431 42.1178 82.558 42.056 82.2994 41.9324C82.0451 41.8088 81.8261 41.642 81.6414 41.4318C81.4567 41.2175 81.3132 40.9785 81.2106 40.7149C81.1123 40.447 81.0625 40.1731 81.0625 39.8929C81.0625 39.6003 81.116 39.3222 81.223 39.0585C81.3293 38.7907 81.4773 38.5538 81.6656 38.3478C81.8546 38.1376 82.0759 37.9728 82.3302 37.8533C82.5888 37.7297 82.8672 37.668 83.1669 37.668C83.4784 37.668 83.7619 37.7318 84.0162 37.8595C84.2741 37.9872 84.4939 38.1583 84.6742 38.3725C84.8588 38.5868 85.0002 38.8257 85.0984 39.0894C85.201 39.3531 85.2522 39.623 85.2522 39.8991C85.2522 40.1916 85.1996 40.4717 85.0925 40.7395C84.99 41.0033 84.8441 41.2402 84.6559 41.4503C84.4668 41.6563 84.2433 41.8191 83.9854 41.9385C83.7311 42.0581 83.4541 42.1178 83.1545 42.1178ZM81.7645 39.8929C81.7645 40.1689 81.8216 40.4305 81.9366 40.6778C82.051 40.9208 82.2115 41.1186 82.4166 41.2711C82.6255 41.4194 82.8739 41.4936 83.1611 41.4936C83.378 41.4936 83.5728 41.4482 83.7451 41.3576C83.9172 41.267 84.0631 41.1455 84.1818 40.9929C84.3012 40.8364 84.3914 40.6634 84.4528 40.4738C84.5144 40.2843 84.5452 40.0906 84.5452 39.8929C84.5452 39.6168 84.4873 39.3573 84.373 39.1141C84.2623 38.871 84.1019 38.6753 83.893 38.527C83.6835 38.3746 83.4395 38.2983 83.1611 38.2983C82.939 38.2983 82.7427 38.3436 82.5705 38.4342C82.3975 38.5249 82.2525 38.6465 82.133 38.7989C82.0143 38.9514 81.922 39.1224 81.8568 39.3119C81.7953 39.5015 81.7645 39.6951 81.7645 39.8929Z" fill="white"/>
<path d="M88.0074 42.1182C87.663 42.1182 87.3699 42.0584 87.1274 41.9389C86.8855 41.8194 86.6907 41.6566 86.5434 41.4506C86.3954 41.2405 86.2891 41.0056 86.2231 40.7461C86.158 40.4824 86.125 40.2084 86.125 39.9242V37.6992H86.8137V39.9242C86.8137 40.126 86.8343 40.3217 86.8753 40.5112C86.9163 40.6966 86.9823 40.8635 87.0725 41.0119C87.1626 41.1601 87.2834 41.2776 87.4351 41.3641C87.5912 41.4506 87.7817 41.4939 88.0074 41.4939C88.2374 41.4939 88.428 41.4506 88.5796 41.3641C88.7358 41.2735 88.8588 41.154 88.9489 41.0056C89.0391 40.8532 89.1029 40.6843 89.1394 40.4989C89.1805 40.3134 89.201 40.1219 89.201 39.9242V37.6992H89.8964V39.9242C89.8964 40.2249 89.8591 40.507 89.7857 40.7708C89.7161 41.0345 89.6048 41.2673 89.4531 41.4692C89.3058 41.671 89.1109 41.8297 88.8691 41.9451C88.631 42.0604 88.3437 42.1182 88.0074 42.1182Z" fill="white"/>
<path d="M91.0234 42.0872V37.6992H92.8568C93.0538 37.6992 93.2341 37.7404 93.3983 37.8227C93.5668 37.9052 93.7104 38.0144 93.8291 38.1503C93.9522 38.2863 94.0468 38.4387 94.112 38.6076C94.1779 38.7766 94.2109 38.9496 94.2109 39.1268C94.2109 39.3741 94.1552 39.6069 94.0445 39.8252C93.9339 40.0436 93.78 40.2207 93.5829 40.3567C93.3866 40.4926 93.1564 40.5606 92.8941 40.5606H91.7129V42.0872H91.0234ZM91.7129 39.9488H92.8509C93.0436 39.9488 93.2019 39.8705 93.325 39.714C93.4481 39.5574 93.5096 39.3617 93.5096 39.1268C93.5096 38.9661 93.4766 38.826 93.4107 38.7066C93.3455 38.5829 93.259 38.4861 93.1528 38.4162C93.0502 38.3461 92.9374 38.311 92.8143 38.311H91.7129V39.9488Z" fill="white"/>
</g>
<defs>
<clipPath id="clip0_2914_58465">
<rect width="93.7895" height="42.6923" fill="white" transform="translate(0.578125 0.128906)"/>
</clipPath>
</defs>
</svg>
