<svg width="25" height="24" viewBox="0 0 25 24" fill="none" xmlns="http://www.w3.org/2000/svg">
<g clip-path="url(#clip0_2865_51931)">
<path d="M12.9141 24C19.5415 24 24.9141 18.6274 24.9141 12C24.9141 5.37258 19.5415 0 12.9141 0C6.28665 0 0.914062 5.37258 0.914062 12C0.914062 18.6274 6.28665 24 12.9141 24Z" fill="#8247E5"/>
<path fill-rule="evenodd" clip-rule="evenodd" d="M8.92554 5.30088C9.16718 5.16664 9.46094 5.16664 9.70258 5.30088L13.3026 7.30087C13.5565 7.44195 13.7141 7.70968 13.7141 8.0002V9.30088L12.1141 10.2002V8.47092L9.31406 6.91536L6.51406 8.47092V11.5295L9.31406 13.085L16.1255 9.30088C16.3672 9.16664 16.6609 9.16664 16.9026 9.30088L20.5026 11.3009C20.7565 11.442 20.9141 11.7097 20.9141 12.0002V16.0002C20.9141 16.2907 20.7565 16.5584 20.5026 16.6995L16.9026 18.6995C16.6609 18.8338 16.3672 18.8338 16.1255 18.6995L12.5255 16.6995C12.2716 16.5584 12.1141 16.2907 12.1141 16.0002V14.6995L13.7141 13.8002V15.5295L16.5141 17.085L19.3141 15.5295V12.4709L16.5141 10.9154L9.70258 14.6995C9.46094 14.8338 9.16718 14.8338 8.92554 14.6995L5.32554 12.6995C5.07158 12.5584 4.91406 12.2907 4.91406 12.0002V8.0002C4.91406 7.70968 5.07158 7.44195 5.32554 7.30087L8.92554 5.30088Z" fill="white"/>
</g>
<defs>
<clipPath id="clip0_2865_51931">
<rect width="24" height="24" fill="white" transform="translate(0.914062)"/>
</clipPath>
</defs>
</svg>
