<svg width="25" height="16" viewBox="0 0 25 16" fill="none" xmlns="http://www.w3.org/2000/svg">
<g clip-path="url(#clip0_2865_53033)">
<path d="M16.1718 3.83232C17.8816 3.45498 19.6384 4.2206 20.5559 5.74298C21.4734 7.26533 21.3522 9.21359 20.2536 10.605C19.1549 11.9963 17.3174 12.5284 15.6681 11.9328C14.0188 11.3372 12.916 9.7433 12.9161 7.95525H9.26563C9.26276 11.5271 11.5875 14.6638 14.9521 15.6278C18.3167 16.5918 21.8976 15.147 23.7112 12.0939C25.5248 9.04079 25.1272 5.12662 22.7386 2.51953C20.35 -0.0875613 16.5552 -0.749371 13.4561 0.900688C14.5914 1.62484 15.5263 2.63411 16.1718 3.83232Z" fill="#5F5FFF"/>
<path d="M9.58474 12.0923C7.875 12.4696 6.1183 11.7041 5.20077 10.1818C4.28323 8.65952 4.40425 6.71131 5.50277 5.31993C6.60128 3.92853 8.43864 3.39627 10.088 3.99163C11.7373 4.587 12.8402 6.18064 12.8404 7.96864H16.4909C16.4938 4.39673 14.1691 1.26007 10.8045 0.296096C7.43982 -0.667873 3.85897 0.776826 2.04537 3.82996C0.231753 6.88309 0.629355 10.7973 3.01793 13.4044C5.4065 16.0115 9.20131 16.6732 12.3004 15.0232C11.1653 14.2992 10.2304 13.2902 9.58474 12.0923Z" fill="#17E5AA"/>
</g>
<defs>
<clipPath id="clip0_2865_53033">
<rect width="24" height="16" fill="white" transform="translate(0.914062)"/>
</clipPath>
</defs>
</svg>
