<svg width="25" height="24" viewBox="0 0 25 24" fill="none" xmlns="http://www.w3.org/2000/svg">
<g clip-path="url(#clip0_2865_51872)">
<path d="M12.9141 24C19.5415 24 24.9141 18.6274 24.9141 12C24.9141 5.37258 19.5415 0 12.9141 0C6.28665 0 0.914062 5.37258 0.914062 12C0.914062 18.6274 6.28665 24 12.9141 24Z" fill="#D64F4A"/>
<path fill-rule="evenodd" clip-rule="evenodd" d="M9.90187 16.9997H7.55671C7.00067 16.9997 6.72263 16.9997 6.55615 16.8899C6.37619 16.7714 6.26267 16.5724 6.25063 16.3546C6.23947 16.1529 6.37719 15.9071 6.65259 15.4155L6.65271 15.4153L11.7873 6.24956C12.0668 5.75068 12.2065 5.5012 12.3843 5.40836C12.5764 5.30804 12.8042 5.30788 12.9964 5.40792C13.1743 5.50048 13.3144 5.74976 13.5946 6.2482L14.7788 8.355L14.7789 8.35504C14.9826 8.71748 15.0845 8.89872 15.1293 9.08992C15.178 9.29808 15.1781 9.51496 15.1295 9.72312C15.0849 9.91436 14.9832 10.0957 14.7797 10.4584L11.7093 15.9316C11.5029 16.2995 11.3997 16.4835 11.2582 16.621C11.1043 16.7707 10.9177 16.881 10.7137 16.9429C10.5262 16.9997 10.3181 16.9997 9.90187 16.9997ZM18.2688 16.9997H15.5498C14.9887 16.9997 14.7082 16.9997 14.5411 16.889C14.3607 16.7694 14.2475 16.569 14.2368 16.35C14.2269 16.1474 14.3681 15.9006 14.6505 15.407L16.0077 13.0343C16.2866 12.547 16.426 12.3032 16.6025 12.212C16.7933 12.1133 17.0188 12.1132 17.2097 12.2115C17.3864 12.3025 17.5261 12.546 17.8055 13.0329L17.8056 13.033L19.1673 15.4057C19.4508 15.8996 19.5925 16.1466 19.5829 16.3493C19.5724 16.5684 19.4593 16.7691 19.2787 16.8889C19.1117 16.9997 18.8307 16.9997 18.2688 16.9997Z" fill="white"/>
</g>
<defs>
<clipPath id="clip0_2865_51872">
<rect width="24" height="24" fill="white" transform="translate(0.914062)"/>
</clipPath>
</defs>
</svg>
