<svg width="25" height="24" viewBox="0 0 25 24" fill="none" xmlns="http://www.w3.org/2000/svg">
<g clip-path="url(#clip0_2865_51898)">
<path d="M12.9141 24C19.5415 24 24.9141 18.6274 24.9141 12C24.9141 5.37258 19.5415 0 12.9141 0C6.28665 0 0.914062 5.37258 0.914062 12C0.914062 18.6274 6.28665 24 12.9141 24Z" fill="#F0B90B"/>
<path d="M9.23022 7.3446L12.9141 5.2002L16.5981 7.3446L15.2436 8.13676L12.9141 6.7846L10.5845 8.13676L9.23022 7.3446ZM16.5981 10.049L15.2436 9.25675L12.9141 10.609L10.5845 9.25675L9.23022 10.049V11.6334L11.5597 12.9855V15.69L12.9141 16.4822L14.2685 15.69V12.9855L16.5981 11.6334V10.049ZM16.5981 14.3377V12.7533L15.2436 13.5455V15.1299L16.5981 14.3377ZM17.5597 14.8978L15.2301 16.2499V17.8343L18.9141 15.69V11.4012L17.5597 12.1933V14.8978ZM16.2052 8.69675L17.5597 9.48896V11.0734L18.9141 10.2812V8.69675L17.5597 7.9046L16.2052 8.69675ZM11.5597 16.8236V18.408L12.9141 19.2002L14.2685 18.408V16.8236L12.9141 17.6158L11.5597 16.8236ZM9.23022 14.3377L10.5845 15.1299V13.5455L9.23022 12.7533V14.3377ZM11.5597 8.69675L12.9141 9.48896L14.2685 8.69675L12.9141 7.9046L11.5597 8.69675ZM8.26846 9.48896L9.6229 8.69675L8.26846 7.9046L6.91406 8.69675V10.2812L8.26846 11.0734V9.48896ZM8.26846 12.1933L6.91406 11.4012V15.69L10.5981 17.8343V16.2499L8.26846 14.8978V12.1933Z" fill="white"/>
</g>
<defs>
<clipPath id="clip0_2865_51898">
<rect width="24" height="24" fill="white" transform="translate(0.914062)"/>
</clipPath>
</defs>
</svg>
