<svg width="25" height="24" viewBox="0 0 25 24" fill="none" xmlns="http://www.w3.org/2000/svg">
<g clip-path="url(#clip0_2865_51920)">
<path d="M12.9141 24C19.5415 24 24.9141 18.6274 24.9141 12C24.9141 5.37258 19.5415 0 12.9141 0C6.28665 0 0.914062 5.37258 0.914062 12C0.914062 18.6274 6.28665 24 12.9141 24Z" fill="#627EEA"/>
<path d="M12.9155 5.6001L12.8281 5.89182V14.3563L12.9155 14.4419L16.9146 12.1195L12.9155 5.6001Z" fill="#C0CBF6"/>
<path d="M12.9132 5.6001L8.91406 12.1195L12.9132 14.4419V10.3335V5.6001Z" fill="white"/>
<path d="M12.9087 15.1846L12.8594 15.2436V18.2587L12.9087 18.4L16.9101 12.8633L12.9087 15.1846Z" fill="#C0CBF6"/>
<path d="M12.9132 18.4V15.1846L8.91406 12.8633L12.9132 18.4Z" fill="white"/>
<path d="M12.9141 14.4463L16.9131 12.1238L12.9141 10.3379V14.4463Z" fill="#8197EE"/>
<path d="M8.91406 12.1238L12.9132 14.4463V10.3379L8.91406 12.1238Z" fill="#C0CBF6"/>
</g>
<defs>
<clipPath id="clip0_2865_51920">
<rect width="24" height="24" fill="white" transform="translate(0.914062)"/>
</clipPath>
</defs>
</svg>
