<svg width="77" height="51" viewBox="0 0 77 51" fill="none" xmlns="http://www.w3.org/2000/svg">
<path d="M9.3712 8.89084H16.5165C18.7077 8.89084 20.9942 9.07987 23.1854 9.55244C25.3766 10.025 27.3773 10.8756 29.1874 12.0098C30.807 13.144 32.1408 14.5617 33.1888 16.4519H43.0016C42.7158 15.6013 42.3347 14.8452 41.9536 14.1836C40.334 11.1592 38.3334 8.70182 35.7611 6.81154C33.1888 4.92126 30.3307 3.59807 27.1867 2.84196C24.0428 1.99134 20.8989 1.61328 17.755 1.61328H0.796875V16.4519H9.3712V8.89084Z" fill="#4F46E5"/>
<path d="M29.1874 38.4742C27.3773 39.7029 25.3766 40.5536 23.1854 41.1206C20.9942 41.5932 18.7077 41.8767 16.5165 41.8767H9.3712V34.4102H0.796875V49.3433H17.8503C20.9942 49.3433 24.1381 48.8708 27.282 47.9256C30.4259 46.9805 33.284 45.5628 35.8563 43.6725C38.4286 41.7822 40.4293 39.2304 42.0489 36.3004C42.3347 35.7333 42.6205 35.0718 42.9063 34.4102H32.9982C31.9502 36.0169 30.7117 37.4346 29.1874 38.4742Z" fill="#4F46E5"/>
<path d="M69.2075 37.3401C67.969 39.0413 66.3494 40.3645 64.3487 41.3097C62.348 42.3493 60.0615 42.9164 57.4892 42.9164C55.0122 42.9164 52.7257 42.4438 50.725 41.5932C48.7244 40.7426 47.0095 39.5139 45.5804 38.0017C44.6277 36.962 43.7703 35.7333 43.1034 34.4102H42.8176H33.1953C33.2906 34.7882 33.4811 35.1663 33.6717 35.5443C34.9102 38.6633 36.7203 41.3097 39.0068 43.4835C41.2933 45.7518 43.9609 47.4531 47.1048 48.6817C50.2487 49.9104 53.6784 50.572 57.4892 50.572C61.5859 50.572 65.2061 49.8159 68.2548 48.3982C71.3034 46.9805 73.971 44.9012 76.0669 42.2548L69.2075 37.3401Z" fill="#4F46E5"/>
<path d="M43.294 16.4521C43.9609 15.1289 44.8183 13.9948 45.771 12.8606C47.2 11.2539 49.0102 10.0252 51.0109 9.17455C53.0115 8.22941 55.298 7.85135 57.775 7.85135C59.6805 7.85135 61.6811 8.22941 63.7771 8.98552C65.7777 9.74163 67.4926 10.9703 68.7311 12.7661L75.2095 7.66233C74.2568 6.43365 73.1136 5.29948 71.7798 4.44886C70.446 3.59823 69.0169 2.84212 67.3973 2.18053C65.873 1.61344 64.2534 1.14088 62.5386 0.857335C60.8237 0.573793 59.3946 0.384766 57.8703 0.384766C54.1548 0.384766 50.725 0.951848 47.5811 2.18053C44.4372 3.40921 41.6744 5.01594 39.2926 7.18976C36.9109 9.36357 35.1007 11.9154 33.7669 15.0344C33.5764 15.507 33.3859 16.0741 33.1953 16.5466H43.0082L43.294 16.4521Z" fill="#4F46E5"/>
<path d="M1.85156 28.2672V22.0293H4.04278C4.51913 22.0293 4.90021 22.0293 5.18602 22.1238C5.5671 22.2183 5.85291 22.3128 6.13872 22.5964C6.42454 22.8799 6.71035 23.258 6.90089 23.636C7.09143 24.1086 7.1867 24.5812 7.1867 25.1483C7.1867 25.6208 7.09143 25.9989 6.99616 26.3769C6.90089 26.755 6.71035 27.0385 6.61508 27.3221C6.42454 27.6056 6.23399 27.7001 6.04345 27.8892C5.85291 27.9837 5.5671 28.1727 5.28129 28.1727C4.99548 28.2672 4.6144 28.2672 4.23332 28.2672H1.85156ZM2.70899 27.5111H4.04278C4.42386 27.5111 4.80494 27.5111 4.99548 27.4166C5.18602 27.3221 5.37656 27.2276 5.5671 27.133C5.75764 26.944 5.94818 26.6605 6.04345 26.3769C6.13872 26.0934 6.234 25.6208 6.234 25.1483C6.234 24.4867 6.13872 24.0141 5.94818 23.636C5.75764 23.258 5.47183 23.0689 5.18602 22.9744C4.99548 22.8799 4.6144 22.8799 4.13805 22.8799H2.80427L2.70899 27.5111Z" fill="#4F46E5"/>
<path d="M8.23438 28.2672V22.0293H12.7121V22.7854H8.99654V24.6757H12.4263V25.4318H8.99654V27.5111H12.8073V28.2672H8.23438Z" fill="#4F46E5"/>
<path d="M13.9531 28.2672V22.0293H14.8106V27.5111H17.8592V28.2672H13.9531Z" fill="#4F46E5"/>
<path d="M18.1406 28.2672L20.5224 22.0293H21.3798L23.9521 28.2672H22.9994L22.2372 26.3769H19.6649L18.9981 28.2672H18.1406ZM19.9508 25.7153H22.0467L21.4751 24.0141C21.2845 23.5415 21.094 23.0689 20.9987 22.6909C20.9035 23.0689 20.8082 23.447 20.6177 23.9196L19.9508 25.7153Z" fill="#4F46E5"/>
<path d="M31.1042 26.093L31.9617 26.282C31.7711 26.9436 31.4853 27.5107 31.009 27.7942C30.5326 28.1723 30.0563 28.3613 29.3894 28.3613C28.7225 28.3613 28.1508 28.2668 27.7698 27.9832C27.3887 27.6997 27.0076 27.3216 26.8171 26.7546C26.6265 26.282 26.5312 25.7149 26.5312 25.0533C26.5312 24.3917 26.6265 23.8246 26.9123 23.3521C27.1981 22.8795 27.484 22.5014 27.9603 22.2179C28.4367 21.9344 28.913 21.8398 29.4846 21.8398C30.1515 21.8398 30.6279 22.0289 31.1042 22.3124C31.4853 22.596 31.8664 23.0685 31.9617 23.6356L31.1042 23.8246C30.9137 23.3521 30.7231 23.0685 30.4373 22.8795C30.1515 22.6905 29.7704 22.596 29.3894 22.596C28.913 22.596 28.5319 22.6905 28.1508 22.974C27.865 23.163 27.5792 23.5411 27.484 23.9191C27.3887 24.2972 27.2934 24.6753 27.2934 25.1478C27.2934 25.7149 27.3887 26.093 27.484 26.5655C27.6745 26.9436 27.865 27.2271 28.2461 27.4162C28.5319 27.6052 28.913 27.6997 29.2941 27.6997C29.7704 27.6997 30.1515 27.6052 30.4373 27.3216C30.7231 26.9436 30.9137 26.5655 31.1042 26.093Z" fill="#4F46E5"/>
<path d="M32.2422 28.2672L34.6239 22.0293H35.4814L38.0537 28.2672H37.101L36.3388 26.3769H33.7665L33.0996 28.2672H32.2422ZM34.0523 25.7153H36.1483L35.4814 24.0141C35.2908 23.5415 35.1003 23.0689 35.005 22.6909C34.9098 23.0689 34.8145 23.447 34.6239 23.9196L34.0523 25.7153Z" fill="#4F46E5"/>
<path d="M38.7188 28.2672V22.0293H41.1005C41.4816 22.0293 41.8627 22.0293 42.0532 22.1238C42.339 22.2183 42.6248 22.3128 42.8154 22.4074C43.0059 22.5964 43.1965 22.7854 43.2917 22.9744C43.387 23.258 43.4823 23.5415 43.4823 23.8251C43.4823 24.3921 43.2917 24.7702 43.0059 25.1483C42.7201 25.5263 42.0532 25.7153 41.1958 25.7153H39.5762V28.2672H38.7188ZM39.5762 24.9592H41.1958C41.7674 24.9592 42.1485 24.8647 42.339 24.6757C42.5296 24.4867 42.7201 24.2031 42.7201 23.8251C42.7201 23.5415 42.6248 23.3525 42.5296 23.1635C42.4343 22.9744 42.2438 22.8799 42.0532 22.7854C41.9579 22.7854 41.6721 22.6909 41.291 22.6909H39.6715L39.5762 24.9592Z" fill="#4F46E5"/>
<path d="M44.7188 28.2672V22.0293H45.5762V28.2672H44.7188Z" fill="#4F46E5"/>
<path d="M48.5334 28.2672V22.7854H46.4375V22.0293H51.3916V22.7854H49.2956V28.2672H48.5334Z" fill="#4F46E5"/>
<path d="M51.0078 28.2672L53.3896 22.0293H54.247L56.8193 28.2672H55.8666L55.1044 26.3769H52.5321L51.8652 28.2672H51.0078ZM52.8179 25.7153H54.9139L54.247 24.0141C54.0565 23.5415 53.8659 23.0689 53.7707 22.6909C53.6754 23.0689 53.5801 23.447 53.3896 23.9196L52.8179 25.7153Z" fill="#4F46E5"/>
<path d="M57.4844 28.2672V22.0293H58.3418V27.5111H61.3905V28.2672H57.4844Z" fill="#4F46E5"/>
</svg>
