<svg width="54" height="50" viewBox="0 0 54 50" fill="none" xmlns="http://www.w3.org/2000/svg">
<path d="M31.4124 18.3415H28.9555V31.6804H26.8516V44.6936H27.1421V31.9737H31.0604V43.9122H31.35V31.6804H29.2461V18.6347H33.4103V44.2668H33.7008V18.3415H31.702V13.2786H36.8046V39.4637L37.0943 39.2689V12.9844H31.4124V18.3415Z" fill="url(#paint0_linear_2914_58192)"/>
<path d="M37.7266 14.957V38.605H38.0162V15.6996L40.8527 18.7675V34.2675H41.1432V18.652L37.7266 14.957Z" fill="url(#paint1_linear_2914_58192)"/>
<path d="M33.0093 42.4115C29.2749 44.2398 25.0595 44.8057 20.9837 44.0259C16.9078 43.2461 13.1869 41.1618 10.3688 38.08C7.55075 34.9981 5.78438 31.0814 5.32981 26.9066C4.87524 22.7319 5.75648 18.5198 7.8438 14.8902C9.93106 11.2607 13.1141 8.40567 16.9243 6.74551C20.7345 5.08534 24.9704 4.70776 29.0085 5.66835C33.0465 6.62895 36.6733 8.87696 39.3547 12.0814C42.0361 15.2858 43.6307 19.2774 43.9034 23.4683H48.6736C48.0133 10.5778 37.4828 0.332031 24.5881 0.332031C11.2675 0.332031 0.46875 11.2663 0.46875 24.7541C0.46875 38.2419 11.2675 49.1753 24.5881 49.1753C25.7836 49.1744 26.9775 49.084 28.1598 48.9046L33.0093 42.4115Z" fill="url(#paint2_linear_2914_58192)"/>
<path d="M43.6638 43.7134H39.3686L53.5224 24.7539H42.0063H41.5367H37.7636H37.294H36.9697H36.5H34.6598H34.1902H32.35H31.8804H30.0312V29.575H34.8247H35.5091H36.5H36.9697H37.294H37.7636H41.5367H42.0063H44.1851L30.0312 48.5344H53.5224V43.7134H48.729H43.6638Z" fill="url(#paint3_linear_2914_58192)"/>
<defs>
<linearGradient id="paint0_linear_2914_58192" x1="20.5878" y1="29.0014" x2="53.8888" y2="28.3942" gradientUnits="userSpaceOnUse">
<stop stop-color="#4F7C39"/>
<stop offset="1" stop-color="#47A54D"/>
</linearGradient>
<linearGradient id="paint1_linear_2914_58192" x1="20.5536" y1="27.1049" x2="53.8546" y2="26.4968" gradientUnits="userSpaceOnUse">
<stop stop-color="#4F7C39"/>
<stop offset="1" stop-color="#47A54D"/>
</linearGradient>
<linearGradient id="paint2_linear_2914_58192" x1="-1.85354" y1="9.65657" x2="33.415" y2="29.298" gradientUnits="userSpaceOnUse">
<stop stop-color="#4F7C39"/>
<stop offset="1" stop-color="#47A54D"/>
</linearGradient>
<linearGradient id="paint3_linear_2914_58192" x1="28.1457" y1="24.2883" x2="52.9305" y2="46.1997" gradientUnits="userSpaceOnUse">
<stop stop-color="#F3C412"/>
<stop offset="0.5" stop-color="#E3B643"/>
<stop offset="1" stop-color="#E87D42"/>
</linearGradient>
</defs>
</svg>
