<svg width="150" height="30" viewBox="0 0 150 30" fill="none" xmlns="http://www.w3.org/2000/svg">
<path d="M70.6969 13.4065C71.1329 13.4065 71.5689 13.552 71.8596 13.8431C72.1503 14.207 72.2956 14.5708 72.2956 15.0074C72.2956 17.2632 71.4962 19.2279 69.8975 20.756C68.2987 22.3569 66.4092 23.1574 64.1564 23.1574C61.9036 23.1574 59.9414 22.3569 58.4153 20.756C56.8166 19.1551 56.0172 17.2632 56.0172 15.0074C56.0172 12.7516 56.8166 10.7869 58.4153 9.25875C60.0141 7.65787 61.9036 6.85742 64.1564 6.85742C66.1185 6.85742 67.9353 7.51233 69.3888 8.74938C69.7521 9.04045 69.8975 9.40429 69.9701 9.84089C69.9701 10.2775 69.8975 10.7141 69.6068 11.0052C69.3161 11.369 68.9527 11.5145 68.5167 11.5873C68.0807 11.6601 67.6447 11.5145 67.354 11.2235C66.4819 10.4958 65.3918 10.0592 64.2291 10.0592C62.8483 10.0592 61.6856 10.5686 60.7408 11.5145C59.7961 12.4605 59.2874 13.6248 59.2874 15.0074C59.2874 16.39 59.7961 17.5543 60.7408 18.5002C61.6856 19.4462 62.8483 19.9556 64.2291 19.9556C65.3192 19.9556 66.2639 19.6645 67.0633 19.0096C67.9353 18.4275 68.5167 17.627 68.8074 16.681H65.5372C65.1011 16.681 64.6651 16.5355 64.3744 16.1717C64.0837 15.8806 63.9384 15.444 63.9384 15.0074C63.9384 14.5708 64.0837 14.1342 64.3744 13.8431C64.7378 13.552 65.1011 13.4065 65.5372 13.4065H70.6969ZM82.833 23.2301C80.5802 23.2301 78.6181 22.4297 77.092 20.8288C75.4932 19.2279 74.6938 17.336 74.6938 15.0802C74.6938 12.8244 75.4932 10.8596 77.092 9.33152C78.6908 7.73063 80.5802 6.93019 82.833 6.93019C85.0859 6.93019 87.048 7.73063 88.5741 9.33152C90.1729 10.9324 90.9723 12.8244 90.9723 15.0802C90.9723 17.336 90.1729 19.3007 88.5741 20.8288C87.048 22.4297 85.0859 23.2301 82.833 23.2301ZM82.833 10.132C81.4523 10.132 80.2895 10.6413 79.3448 11.5873C78.4001 12.5333 77.8914 13.6976 77.8914 15.0802C77.8914 16.4627 78.4001 17.627 79.3448 18.573C80.2895 19.519 81.4523 20.0284 82.833 20.0284C84.2138 20.0284 85.3765 19.519 86.3213 18.573C87.266 17.627 87.7747 16.4627 87.7747 15.0802C87.7747 13.6976 87.266 12.5333 86.3213 11.5873C85.3765 10.5686 84.2138 10.132 82.833 10.132ZM93.5158 10.132C93.0797 10.132 92.6437 9.98643 92.353 9.69536C92.0623 9.33152 91.917 8.96768 91.917 8.53108C91.917 8.09447 92.0623 7.65787 92.353 7.3668C92.7164 7.07573 93.0797 6.93019 93.5158 6.93019H104.707C105.143 6.93019 105.579 7.07573 105.87 7.3668C106.161 7.73063 106.306 8.09447 106.306 8.53108C106.306 8.96768 106.161 9.40429 105.87 9.69536C105.507 9.98643 105.143 10.132 104.707 10.132H100.71V21.6292C100.71 22.0659 100.565 22.4297 100.274 22.7935C99.9109 23.1574 99.5475 23.3029 99.1115 23.3029C98.6755 23.3029 98.3121 23.1574 97.9487 22.7935C97.5854 22.5025 97.44 22.0659 97.44 21.6292V10.132H93.5158ZM118.733 6.85742C120.114 6.85742 121.276 7.3668 122.221 8.31277C123.166 9.25875 123.675 10.423 123.675 11.8056C123.675 12.8244 123.384 13.7703 122.802 14.5708C124.038 15.5895 124.619 16.8266 124.619 18.3547C124.619 19.7373 124.111 20.9016 123.166 21.8475C122.221 22.7935 121.058 23.3029 119.678 23.3029H111.248C110.812 23.3029 110.448 23.1574 110.085 22.7935C109.722 22.5025 109.576 22.0659 109.576 21.6292V8.53108C109.576 8.09447 109.722 7.65787 110.085 7.3668C110.376 7.07573 110.812 6.93019 111.248 6.93019H118.733V6.85742ZM112.919 13.4065H118.733C119.169 13.4065 119.532 13.261 119.896 12.8971C120.259 12.6061 120.404 12.1695 120.404 11.7329C120.404 11.2962 120.259 10.9324 119.896 10.5686C119.605 10.2047 119.169 10.0592 118.733 10.0592H112.919V13.4065ZM119.678 19.9556C120.114 19.9556 120.477 19.8101 120.84 19.4462C121.204 19.1551 121.349 18.7185 121.349 18.2819C121.349 17.8453 121.204 17.4815 120.84 17.1177C120.55 16.7538 120.114 16.6083 119.678 16.6083H112.919V19.8828H119.678V19.9556ZM130.869 23.2301C130.433 23.2301 129.997 23.0846 129.706 22.7935C129.416 22.4297 129.27 22.0659 129.27 21.6292V8.53108C129.27 8.09447 129.416 7.65787 129.706 7.3668C130.07 7.07573 130.433 6.93019 130.869 6.93019C131.305 6.93019 131.741 7.07573 132.032 7.3668C132.322 7.73063 132.468 8.09447 132.468 8.53108V21.6292C132.468 22.0659 132.322 22.5025 132.032 22.7935C131.741 23.0846 131.378 23.2301 130.869 23.2301ZM136.973 10.132C136.537 10.132 136.101 9.98643 135.811 9.69536C135.52 9.33152 135.375 8.96768 135.375 8.53108C135.375 8.09447 135.52 7.65787 135.811 7.3668C136.174 7.07573 136.537 6.93019 136.973 6.93019H148.165C148.601 6.93019 149.037 7.07573 149.328 7.3668C149.618 7.73063 149.764 8.09447 149.764 8.53108C149.764 8.96768 149.618 9.40429 149.328 9.69536C148.964 9.98643 148.601 10.132 148.165 10.132H144.168V21.6292C144.168 22.0659 144.023 22.4297 143.732 22.7935C143.369 23.1574 143.005 23.3029 142.569 23.3029C142.133 23.3029 141.77 23.1574 141.406 22.7935C141.043 22.5025 140.898 22.0659 140.898 21.6292V10.132H136.973ZM2.96685 17.1177C4.1296 17.1177 5.07433 16.1717 5.07433 15.0074C5.07433 13.8431 4.1296 12.8971 2.96685 12.8971C1.80411 12.8971 0.859375 13.9159 0.859375 15.0802C0.859375 16.2444 1.80411 17.1177 2.96685 17.1177ZM17.5012 25.7042C18.6639 25.7042 19.6087 24.7583 19.6087 23.594C19.6087 22.4297 18.6639 21.4837 17.5012 21.4837C16.3384 21.4837 15.3937 22.4297 15.3937 23.594C15.4664 24.7583 16.4111 25.7042 17.5012 25.7042Z" fill="white"/>
<path d="M47.7407 13.479C47.232 12.9697 46.7233 12.9697 46.3599 12.9697H23.759C24.7037 8.167 28.9914 4.60138 34.0057 4.60138C36.7672 4.60138 39.3834 5.6929 41.3456 7.65762C42.1449 8.45807 43.453 8.53083 44.2524 7.73039C45.1245 6.92995 45.1245 5.54736 44.3251 4.67415C41.6362 1.90898 37.93 0.380859 34.0057 0.380859C30.5175 0.380859 27.3199 1.61791 24.8491 3.6554C23.6863 4.52861 22.8143 4.60138 20.9975 4.60138H17.5092C16.3465 4.60138 15.4018 5.54736 15.4018 6.78441C15.4018 7.94869 16.4192 8.8219 17.5819 8.8219H23.105L20.9975 9.11297C20.7068 9.18574 20.4888 9.33128 20.4161 9.54958C20.1254 10.2773 19.9074 11.0777 19.6894 11.8781C19.4714 12.6058 18.454 12.8969 16.9279 12.8969H9.29734C8.13459 12.8969 7.11719 13.7701 7.11719 14.9344C7.11719 16.0987 8.06192 17.1174 9.22467 17.1174H22.3782L20.1981 17.4813C19.8347 17.554 19.6167 17.9179 19.6894 18.2817C21.1428 24.8308 27.0292 29.7062 34.0057 29.7062C41.8543 29.7062 48.2494 23.521 48.6127 15.7348C48.6854 14.9344 48.3947 14.0612 47.7407 13.479ZM34.0057 25.5585C28.9187 25.5585 24.7037 21.9201 23.759 17.1902H44.2524C43.3077 21.9201 39.0927 25.5585 34.0057 25.5585Z" fill="white"/>
</svg>
