<svg width="88" height="56" viewBox="0 0 88 56" fill="none" xmlns="http://www.w3.org/2000/svg">
<path d="M25.3875 33.1855V39.0635H29.0773V40.3907H23.9844V33.1855H25.3875Z" fill="white"/>
<path d="M31.5881 33.1582H30.2109V40.3905H31.5881V33.1582Z" fill="white"/>
<path d="M33.6202 39.3612C32.9446 38.684 32.6328 37.8172 32.6328 36.7608C32.6328 35.7586 32.9706 34.8918 33.6202 34.1875C34.2958 33.4832 35.1013 33.1582 36.0887 33.1582C37.0761 33.1582 37.9336 33.4832 38.6352 34.1333L37.6997 35.1897C37.232 34.8105 36.6863 34.6209 36.0887 34.6209C35.4651 34.6209 34.9714 34.8376 34.5816 35.2168C34.1919 35.6231 34.01 36.1378 34.01 36.7608C34.01 37.438 34.2178 37.9526 34.5816 38.3589C34.9714 38.7653 35.4651 38.9549 36.0887 38.9549C36.5824 38.9549 36.9722 38.8465 37.232 38.6569V37.4109H36.2966V36.0565H38.6092V39.4424C37.9076 40.0925 37.0501 40.4176 36.0627 40.4176C35.1013 40.3905 34.2698 40.0654 33.6202 39.3612Z" fill="white"/>
<path d="M40.0391 40.3905V33.1582H41.4162V36.0565H44.6383V33.1582H46.0414V40.3905H44.6383V37.4109H41.4162V40.3905H40.0391Z" fill="white"/>
<path d="M53.1899 33.1855V34.5128H50.8773V40.3907H49.5001V34.5128H47.1875V33.1855H53.1899Z" fill="white"/>
<path d="M54.2188 40.3905V33.1582H55.5959V36.0565H58.8439V33.1582H60.2211V40.3905H58.8439V37.4109H55.5959V40.3905H54.2188Z" fill="white"/>
<path d="M62.3624 39.3614C61.6868 38.6572 61.375 37.8175 61.375 36.7881C61.375 35.7588 61.7128 34.892 62.3624 34.2149C63.038 33.5106 63.8435 33.1855 64.8309 33.1855C65.8183 33.1855 66.6498 33.5377 67.2994 34.2149C67.975 34.892 68.2868 35.7588 68.2868 36.7881C68.2868 37.8175 67.949 38.6842 67.2994 39.3614C66.6238 40.0657 65.8183 40.3907 64.8309 40.3907C63.8695 40.3907 63.038 40.0657 62.3624 39.3614ZM64.8569 39.0635C65.4805 39.0635 65.9742 38.8468 66.364 38.4134C66.7537 37.98 66.9356 37.4382 66.9356 36.7881C66.9356 36.1381 66.7537 35.5963 66.364 35.1629C65.9742 34.7295 65.4805 34.5128 64.8569 34.5128C64.2333 34.5128 63.7396 34.7295 63.3498 35.1629C62.96 35.5963 62.7781 36.1381 62.7781 36.7881C62.7781 37.4382 62.96 37.98 63.3498 38.4134C63.7396 38.8468 64.2333 39.0635 64.8569 39.0635Z" fill="white"/>
<path d="M70.6244 33.1855V37.3841C70.6244 37.9258 70.7803 38.3321 71.0922 38.5759C71.404 38.8468 71.7937 38.9551 72.2355 38.9551C72.7032 38.9551 73.093 38.8197 73.3788 38.5759C73.6906 38.3321 73.8465 37.9258 73.8465 37.3841V33.1855H75.2237V37.7633C75.2237 38.4946 74.9378 39.1176 74.3662 39.6323C73.7945 40.147 73.067 40.3907 72.2095 40.3907C71.352 40.3907 70.6244 40.147 70.0528 39.6323C69.4811 39.1176 69.1953 38.4946 69.1953 37.7633V33.1855H70.6244Z" fill="white"/>
<path d="M80.4985 33.4022C80.8623 33.5648 81.1741 33.8086 81.4859 34.1336L80.5505 35.1087C80.2387 34.7295 79.8229 34.5399 79.2513 34.5399C78.7056 34.5399 78.3418 34.6753 78.1859 34.9462C78.03 35.2171 78.03 35.4609 78.1859 35.6505C78.3418 35.8401 78.7056 35.9755 79.2513 36.0839C79.8489 36.1381 80.3686 36.3547 80.8363 36.6798C81.304 37.0048 81.5639 37.5466 81.5639 38.305C81.5639 38.8739 81.304 39.3885 80.8103 39.7948C80.2906 40.2011 79.693 40.4178 79.0174 40.4178C78.3678 40.4178 77.8221 40.3095 77.4064 40.1199C76.9647 39.9303 76.6009 39.6594 76.2891 39.3614L77.2245 38.3863C77.5363 38.7655 78.056 39.0093 78.8095 39.0635C79.4332 39.0635 79.8229 38.928 79.9528 38.6572C80.1087 38.3863 80.1087 38.1154 79.9528 37.8445C79.7969 37.5737 79.4072 37.4112 78.8095 37.3299C78.2639 37.2757 77.7442 37.0861 77.2765 36.7881C76.8088 36.4902 76.5749 36.0026 76.5749 35.2983C76.5749 34.6483 76.8347 34.1336 77.3544 33.7544C77.8741 33.3752 78.4198 33.1855 78.9654 33.1855C79.641 33.1855 80.1607 33.2397 80.4985 33.4022Z" fill="white"/>
<path d="M82.8047 40.3905V33.1853L87.8976 33.1582V34.5126H84.1818V36.0565H86.9622V37.4109H84.1818V39.0632H87.8976V40.3905H82.8047Z" fill="white"/>
<path d="M24.7109 44.4004L26.27 48.626L27.881 44.4004H29.0503L26.8416 50.17H25.7503L23.5156 44.4004H24.7109Z" fill="white"/>
<path d="M29.9531 50.17V44.4275L34.0067 44.4004V45.4839H31.0445V46.7299H33.2791V47.7863H31.0445V49.0865H34.0067V50.17H29.9531Z" fill="white"/>
<path d="M35.125 50.17V44.4004H35.4888L38.9447 48.0301V44.4004H40.062V50.17H39.6462L36.2163 46.5945V50.17H35.125Z" fill="white"/>
<path d="M45.6952 44.4004V45.4839H43.8763V50.17H42.7589V45.4839H40.9141V44.4004H45.6952Z" fill="white"/>
<path d="M47.547 44.4004V47.7321C47.547 48.1655 47.6769 48.4906 47.9108 48.6802C48.1446 48.8969 48.4565 48.9781 48.8202 48.9781C49.184 48.9781 49.4958 48.8698 49.7297 48.6802C49.9635 48.4635 50.0935 48.1655 50.0935 47.7321V44.4004H51.2108V48.0572C51.2108 48.6531 50.9769 49.1407 50.5352 49.547C50.0935 49.9533 49.5218 50.17 48.8202 50.17C48.1446 50.17 47.573 49.9533 47.1053 49.547C46.6635 49.1407 46.4297 48.626 46.4297 48.0572V44.4004H47.547Z" fill="white"/>
<path d="M55.7504 47.6509L57.1276 50.17H55.8543L54.5291 47.7863H53.5158V50.17H52.3984V44.4004H54.815C56.1142 44.4004 56.7378 44.9421 56.7378 46.0527C56.7638 46.8924 56.426 47.4342 55.7504 47.6509ZM53.5417 46.7299H55.1008C55.5425 46.7299 55.7764 46.5132 55.7764 46.1069C55.7764 45.7277 55.5425 45.5381 55.1008 45.511H53.5417V46.7299Z" fill="white"/>
<path d="M57.7109 50.17V44.4275L61.7645 44.4004V45.4839H58.8023V46.7299H61.0109V47.7863H58.8023V49.0865H61.7645V50.17H57.7109Z" fill="white"/>
<path d="M65.865 44.6167C66.1509 44.7521 66.4107 44.9417 66.6446 45.1855L65.917 45.9439C65.6831 45.646 65.3194 45.4835 64.8776 45.4835C64.4359 45.4835 64.1501 45.5918 64.0202 45.8085C63.8902 46.0252 63.8902 46.2148 64.0202 46.3773C64.1501 46.5399 64.4359 46.6482 64.8776 46.7295C65.3454 46.7836 65.7611 46.9462 66.1509 47.217C66.5406 47.4879 66.7225 47.9213 66.7225 48.5172C66.7225 48.9777 66.5146 49.384 66.1249 49.7091C65.7091 50.0341 65.2414 50.1966 64.6957 50.1966C64.1761 50.1966 63.7603 50.1154 63.4225 49.9528C63.0847 49.7903 62.7729 49.6007 62.5391 49.3298L63.2666 48.5714C63.5005 48.8694 63.9422 49.059 64.5139 49.1131C65.0076 49.1131 65.3194 49.0048 65.4233 48.7881C65.5532 48.5714 65.5532 48.3547 65.4233 48.138C65.2934 47.9213 65.0076 47.7859 64.5139 47.7317C64.0721 47.6775 63.6564 47.5421 63.2926 47.2983C62.9288 47.0545 62.7469 46.6753 62.7469 46.1065C62.7469 45.5918 62.9548 45.1855 63.3706 44.8875C63.7863 44.5896 64.228 44.4271 64.6698 44.4271C65.1894 44.4 65.5792 44.4812 65.865 44.6167Z" fill="white"/>
<path d="M17.7413 55.9389C17.2476 52.8509 16.7799 49.763 16.3642 46.648C15.9484 43.5329 15.5586 40.445 15.2468 37.33C14.935 34.2149 14.6752 31.0999 14.5453 27.9578L14.2854 18.5585V18.4773L14.3114 18.4231C14.5712 18.0439 14.8311 17.6917 15.1169 17.3396C15.2728 17.1771 15.4027 16.9875 15.5846 16.8249C15.6366 16.7708 15.6626 16.7437 15.7145 16.7166C15.7665 16.6895 15.7145 16.7166 15.7145 16.7166C15.7145 16.7166 15.7145 16.7166 15.7405 16.6895C15.7665 16.6353 15.7925 16.527 15.7925 16.4186C15.8445 16.0123 15.8445 15.5518 15.8185 15.1184C15.8185 14.6851 15.7925 14.2246 15.7665 13.7912L15.6366 11.1095C15.6106 10.6491 15.5846 10.2157 15.6106 9.75518C15.6106 9.64683 15.6106 9.53849 15.6106 9.40305V9.32179C15.6106 9.2947 15.6106 9.2947 15.6106 9.26761C15.6106 9.24053 15.6106 9.21344 15.5846 9.15926C15.5327 8.99674 15.4287 8.80713 15.2988 8.64461C14.8311 7.94034 14.2075 7.31734 13.6098 6.69433C13.0122 6.07132 12.3886 5.47541 11.739 4.8524C10.5177 3.66056 9.21849 2.49581 7.89329 1.35815L8.23109 1.33106C7.2177 2.41455 6.17833 3.49804 5.11298 4.55444C4.59329 5.0691 4.04762 5.61084 3.50195 6.09841C2.95629 6.61307 2.41062 7.10064 1.76101 7.53403C1.68306 7.58821 1.60511 7.64238 1.50117 7.69656C1.47518 7.69656 1.4492 7.72364 1.4492 7.72364C1.47518 7.72364 1.47518 7.72364 1.47518 7.72364C1.47518 7.72364 1.4492 7.75073 1.4492 7.77782C1.39723 7.88617 1.37125 8.07578 1.37125 8.26539C1.34526 8.61752 1.34526 8.99674 1.34526 9.37596C1.34526 10.1344 1.39723 10.8928 1.4492 11.6513L1.60511 13.9266C1.63109 14.3058 1.65707 14.6851 1.65707 15.0643C1.65707 15.2539 1.65707 15.4435 1.65707 15.6602C1.65707 15.8498 1.65707 16.0394 1.60511 16.2832L1.55314 16.0665L3.21613 18.4231L2.9303 18.3418L3.32007 18.2335L3.70983 18.1522C3.96967 18.098 4.20353 18.0439 4.46337 17.9897C4.95707 17.8813 5.47676 17.773 5.97046 17.6917C6.98384 17.5021 7.97124 17.3125 8.98463 17.15C10.9854 16.7979 13.0122 16.4728 15.013 16.1207C19.0405 15.4706 23.0681 14.8476 27.0956 14.2517C31.1232 13.6557 35.1767 13.0598 39.2043 12.5181L45.2586 11.7055C47.2854 11.4617 49.3122 11.1908 51.3389 11.0283C49.3122 11.2179 47.2854 11.5429 45.2846 11.8138L39.2303 12.7348L27.1476 14.6309C23.1201 15.281 19.0925 15.9311 15.0649 16.6082C13.0642 16.9333 11.0374 17.2854 9.0366 17.6376C8.02321 17.8272 7.03581 17.9897 6.02243 18.2064C5.52873 18.3147 5.03503 18.396 4.51534 18.5044C4.2555 18.5585 4.02164 18.6127 3.7618 18.6669L3.44999 18.694L3.11219 18.8023L2.9303 18.8565L2.82636 18.721L1.16337 16.3645L1.08542 16.2561L1.1114 16.1478C1.16337 15.8498 1.16337 15.4435 1.16337 15.0643C1.16337 14.6851 1.13739 14.3058 1.1114 13.9266L0.955499 11.6513C0.903531 10.8928 0.851562 10.1344 0.851562 9.34888C0.851562 8.96965 0.851562 8.59043 0.877547 8.18413C0.903531 7.99451 0.929515 7.77782 1.00747 7.56112C1.03345 7.50695 1.05944 7.42568 1.1114 7.37151C1.13739 7.34442 1.18936 7.29025 1.24133 7.26316L1.29329 7.23607C1.37125 7.20899 1.4492 7.15481 1.50117 7.10064C2.07282 6.69433 2.64448 6.20676 3.19014 5.71919C3.73581 5.23162 4.2555 4.71696 4.80117 4.17522C5.86652 3.11882 6.87991 2.06242 7.91928 0.978929L8.0492 0.816406L8.23109 0.978929C9.55628 2.11659 10.8555 3.28134 12.1027 4.50027C12.7264 5.09618 13.35 5.71919 13.9736 6.3422C14.5712 6.99229 15.1689 7.61529 15.6886 8.37374C15.8185 8.56335 15.9484 8.75296 16.0264 9.02383C16.0523 9.078 16.0523 9.15926 16.0783 9.24053C16.0783 9.26761 16.0783 9.34888 16.0783 9.37596V9.45722C16.0783 9.56557 16.0783 9.67392 16.0783 9.78227C16.0783 10.2157 16.1043 10.6491 16.1043 11.1095L16.2342 13.7912C16.2602 14.2246 16.2602 14.6851 16.2862 15.1455C16.2862 15.606 16.2862 16.0394 16.2342 16.527C16.2082 16.6353 16.2082 16.7708 16.1563 16.9062C16.1303 16.9333 16.1303 16.9875 16.1043 17.0146C16.0783 17.0416 16.0004 17.1229 16.0004 17.1229C15.9744 17.15 15.9224 17.1771 15.8964 17.2042C15.7405 17.3396 15.6106 17.5021 15.4807 17.6646C15.1949 17.9897 14.935 18.3418 14.7012 18.694L14.7271 18.5585L14.8051 23.2717L14.8571 25.6283C14.8571 26.4138 14.8571 27.1993 14.909 27.9849C15.013 31.0999 15.2468 34.242 15.5327 37.357C15.8185 40.4721 16.1563 43.5871 16.5201 46.7021C16.8579 49.7359 17.2736 52.8509 17.7413 55.9389Z" fill="white"/>
<path d="M51.6015 24.6267C47.5739 24.3559 43.5464 24.1663 39.5188 23.9496C35.4913 23.7329 31.4637 23.5432 27.4362 23.3807C23.4086 23.2182 19.381 23.0557 15.3535 22.9202C11.3259 22.8119 7.29837 22.7306 3.27082 22.7577L3.53066 22.4598C3.76452 25.1143 3.89444 27.7418 3.94641 30.3963C3.99837 33.0509 3.97239 35.7054 3.84247 38.3599C3.71255 41.0145 3.50467 43.669 3.14089 46.2965C2.959 47.6238 2.72515 48.924 2.49129 50.2241C2.23145 51.5243 1.91964 52.8245 1.55586 54.0976L1.27003 53.9622C1.50389 53.583 1.76373 53.285 2.02357 52.96L2.43932 52.4995L2.88105 52.0661C3.16688 51.7681 3.47869 51.4972 3.7905 51.2264C4.10231 50.9555 4.41412 50.6846 4.72593 50.4408C5.03774 50.1971 5.37554 49.9262 5.68735 49.7095L6.67475 49.0052C7.35034 48.5718 8.02593 48.1113 8.7275 47.705C9.42908 47.2716 10.1307 46.9195 10.8582 46.5403C11.5598 46.1611 12.3133 45.836 13.0409 45.4568C13.7684 45.1317 14.522 44.8067 15.2495 44.4817L17.4842 43.5878L15.2495 44.5358L13.0669 45.5651C12.3393 45.9444 11.6118 46.2965 10.9102 46.6757C10.2086 47.082 9.50703 47.4612 8.80546 47.8946C8.10388 48.301 7.45428 48.7614 6.77869 49.2219L5.79129 49.9262C5.45349 50.17 5.16766 50.4408 4.82987 50.6846C4.51806 50.9284 4.20625 51.1993 3.89444 51.4702C3.60861 51.741 3.2968 52.0119 3.01097 52.3099L2.59523 52.7433L2.20546 53.2037C1.94562 53.5017 1.68578 53.8267 1.4779 54.1518L0.90625 55.0728L1.19208 54.0163C1.52987 52.7433 1.8157 51.4702 2.07554 50.17C2.3094 48.8698 2.51727 47.5696 2.69916 46.2694C3.03696 43.642 3.24483 41.0145 3.34877 38.387C3.4527 35.7596 3.47869 33.105 3.42672 30.4776C3.34877 27.8501 3.21885 25.1956 2.98499 22.5681L2.959 22.2701H3.24483C7.29837 22.216 11.3259 22.3514 15.3535 22.4598C19.381 22.5952 23.4086 22.7577 27.4621 22.9744C31.4897 23.1911 35.5173 23.4349 39.5448 23.7058L45.5731 24.1392C47.5739 24.2746 49.6007 24.41 51.6015 24.6267Z" fill="white"/>
<path d="M3.08594 38.657C3.91743 37.7089 4.82688 36.8422 5.76231 36.0295C6.69775 35.2169 7.68515 34.4585 8.72452 33.7542C9.76389 33.077 10.8292 32.4269 11.9466 31.8852C13.0639 31.3705 14.2332 30.9371 15.4544 30.6934C14.3111 31.1268 13.2198 31.6685 12.1285 32.2644C11.8686 32.4269 11.6088 32.5624 11.3229 32.7249C11.0631 32.8603 10.8033 33.0499 10.5434 33.2125C10.0237 33.5375 9.50405 33.8626 9.01034 34.2147C7.99696 34.8919 7.00956 35.6232 6.02216 36.3817C5.03476 37.113 4.04735 37.8715 3.08594 38.657Z" fill="white"/>
</svg>
