<svg width="103" height="42" viewBox="0 0 103 42" fill="none" xmlns="http://www.w3.org/2000/svg">
<g clip-path="url(#clip0_3585_57252)">
<path d="M57.9764 30.0001V16.6561H52.8359V13.0801H67.561V16.6561H62.4203V30.0001H57.9764Z" fill="white"/>
<path d="M67.9873 21.5284C67.9478 19.9387 68.3027 18.3639 69.0203 16.9444C69.6825 15.6594 70.7105 14.5988 71.9748 13.8964C73.387 13.1863 74.9459 12.8164 76.5268 12.8164C78.1077 12.8164 79.6667 13.1863 81.0788 13.8964C82.3428 14.5993 83.3707 15.6597 84.0334 16.9444C84.7661 18.3593 85.1296 19.9359 85.0903 21.5284C85.1258 23.1205 84.7625 24.6963 84.0334 26.1124C83.3671 27.4007 82.3407 28.4679 81.0788 29.1844C79.6667 29.8945 78.1077 30.2644 76.5268 30.2644C74.9459 30.2644 73.387 29.8945 71.9748 29.1844C70.7197 28.4593 69.6954 27.3943 69.0203 26.1124C68.3062 24.6917 67.9515 23.1178 67.9873 21.5284ZM72.6234 21.5284C72.6014 22.4512 72.7479 23.3702 73.0558 24.2404C73.2978 24.9306 73.7413 25.5324 74.3289 25.9684C74.978 26.3893 75.7416 26.5989 76.5148 26.5684C77.0778 26.6066 77.6415 26.5062 78.1567 26.2761C78.6718 26.0459 79.1225 25.6931 79.4694 25.2484C80.1847 24.1443 80.5296 22.8414 80.4543 21.5284C80.4763 20.6057 80.3298 19.6866 80.0219 18.8164C79.7775 18.1206 79.3139 17.5227 78.7007 17.1124C78.0516 16.6916 77.288 16.482 76.5148 16.5124C75.9551 16.4723 75.3942 16.572 74.8826 16.8024C74.371 17.0329 73.9248 17.3868 73.5843 17.8324C72.8778 18.9306 72.5411 20.2256 72.6234 21.5284Z" fill="white"/>
<path d="M87.75 30.0001V13.0801H91.0169L99.5924 23.7121H98.8958V13.0801H103.003V30.0001H99.7365L91.209 19.3681H91.9056V30.0001H87.75Z" fill="white"/>
<path d="M21.0184 42C32.6266 42 42.0368 32.598 42.0368 21C42.0368 9.40202 32.6266 0 21.0184 0C9.41027 0 0 9.40202 0 21C0 32.598 9.41027 42 21.0184 42Z" fill="#0088CC"/>
<path fill-rule="evenodd" clip-rule="evenodd" d="M15.1714 13.8784H26.96C27.3976 13.8698 27.8315 13.9601 28.2293 14.1425C28.6399 14.3457 28.9842 14.6612 29.2222 15.0523C29.2373 15.0744 29.2514 15.097 29.2645 15.1203C29.4925 15.5209 29.6116 15.9741 29.6101 16.4349C29.6118 16.9102 29.4929 17.3782 29.2645 17.7952L29.2576 17.8074L21.8097 30.59C21.729 30.7285 21.6133 30.8433 21.4741 30.923C21.3348 31.0026 21.1771 31.0442 21.0167 31.0437C20.8563 31.0431 20.6989 31.0003 20.5603 30.9197C20.4216 30.8391 20.3067 30.7234 20.227 30.5844L12.9159 17.829L12.9095 17.8186C12.6546 17.4452 12.4929 17.0161 12.4382 16.5673C12.3962 16.0616 12.5101 15.5551 12.7646 15.116C13.0192 14.6768 13.4021 14.326 13.862 14.1107C14.2756 13.9364 14.723 13.857 15.1714 13.8784ZM20.1061 15.7045H15.1714C14.9905 15.6874 14.8081 15.708 14.6357 15.7651C14.5145 15.8218 14.4136 15.9144 14.3468 16.0302C14.279 16.1475 14.2486 16.2827 14.2598 16.4177C14.2661 16.4954 14.2978 16.5842 14.4847 16.8921L14.4961 16.9116L20.1061 26.699V15.7045ZM21.9338 15.7045V26.7474L27.6737 16.896C27.7465 16.7533 27.7838 16.5951 27.7824 16.4349C27.7839 16.2994 27.7514 16.1656 27.6879 16.0458C27.6446 15.98 27.596 15.9177 27.5427 15.8596C27.5186 15.8335 27.4895 15.8124 27.4571 15.7976C27.301 15.7281 27.1307 15.6963 26.96 15.7045H21.9338Z" fill="white"/>
</g>
<defs>
<clipPath id="clip0_3585_57252">
<rect width="103" height="42" fill="white"/>
</clipPath>
</defs>
</svg>
