<svg width="149" height="47" viewBox="0 0 149 47" fill="none" xmlns="http://www.w3.org/2000/svg">
<g clip-path="url(#clip0_2914_58048)">
<path d="M59.0297 30.901H53.6567C53.6214 28.9245 53.59 26.8966 53.5547 24.9004H58.81L58.8296 26.1258H55.1403L55.1599 27.284H58.6373L58.6569 28.4699H55.1599L55.1795 29.6796H59.0101L59.0297 30.901Z" fill="#923E97"/>
<path d="M69.9221 24.9004H71.649V24.9597L69.3177 27.8849L71.7707 30.8575V30.901H70.0438L68.3444 28.7901L66.7156 30.901H64.969V30.8575L67.3239 27.8849L64.9062 24.9597V24.9004H66.6292L68.3208 27.035L69.9221 24.9004Z" fill="#923E97"/>
<path d="M83.8363 30.1732C83.0694 30.782 82.1117 31.0947 81.136 31.0547C78.4436 31.0547 77.3486 29.5803 77.3133 27.9437C77.278 26.3902 78.4397 24.7813 81.034 24.7813C81.9837 24.7749 82.9057 25.1036 83.64 25.7103L82.6667 26.5404C82.1984 26.1994 81.6312 26.0242 81.0536 26.0423C79.4484 26.0423 78.8439 27.0978 78.8675 27.9714C78.891 28.845 79.4601 29.8412 81.1164 29.8412C81.7373 29.8401 82.3414 29.6377 82.8394 29.264L83.8363 30.1732Z" fill="#923E97"/>
<path d="M94.9172 30.9089L94.878 28.5371H91.7382L91.7774 30.9089H90.2075L90.1094 24.9082H91.6793L91.7185 27.3077H94.8584L94.8191 24.9082H96.389L96.4871 30.9089H94.9172Z" fill="#923E97"/>
<path d="M108.438 29.8732H104.819L104.321 30.901H102.625L105.694 24.9004H107.409L110.675 30.901H108.971L108.438 29.8732ZM106.573 26.2563L105.396 28.6874H107.825L106.573 26.2563Z" fill="#923E97"/>
<path d="M121.703 28.802L121.574 26.9164L121.538 24.9004H123.108L123.206 30.901H121.852L118.281 27.0587L118.375 29.0352L118.406 30.905H116.825L116.727 24.9043H118.081L121.703 28.802Z" fill="#923E97"/>
<path d="M135.131 26.4768C134.648 26.1266 134.067 25.941 133.471 25.9471C132.129 25.9471 131.262 26.5954 131.285 27.9236C131.285 28.7814 131.87 29.8526 133.534 29.8526C134.064 29.8747 134.587 29.728 135.029 29.4336V28.473H133.346L133.326 27.3583H136.372L136.415 29.9712C135.822 30.7104 134.845 31.086 133.562 31.086C130.838 31.086 129.782 29.485 129.758 27.9236C129.727 26.2357 130.873 24.7375 133.467 24.7375C134.433 24.6985 135.378 25.0289 136.113 25.6625L135.131 26.4768Z" fill="#923E97"/>
<path d="M148.251 30.901H143.09C143.059 28.9245 143.024 26.8966 142.992 24.9004H148.224L148.247 26.1258H144.554L144.574 27.284H148.051L148.071 28.4699H144.593L144.613 29.6796H148.232L148.251 30.901Z" fill="#923E97"/>
<path d="M63.3955 13.8244L59.8906 17.647H59.4275L55.8952 13.7968L56.009 20.6671H53.4305L53.2656 10.832H56.2249L59.663 14.6111L62.9873 10.832H65.9152L66.0761 20.6671H63.525L63.3955 13.8244Z" fill="white"/>
<path d="M69.0477 20.6554L68.8828 10.8164H71.4457L71.6105 20.6554H69.0477Z" fill="white"/>
<path d="M76.9926 10.8164L77.1221 18.6433H82.9073L82.9387 20.6554H74.575L74.4141 10.8164H76.9926Z" fill="white"/>
<path d="M94.2717 10.8757L89.6522 15.5956L94.8407 20.5289V20.6554H91.7323L87.3837 16.4534L87.4661 20.6554H84.8757L84.7188 10.8164H87.2973L87.3641 14.8801L91.1515 10.8164H94.2913L94.2717 10.8757Z" fill="white"/>
<path d="M100.813 14.7259L103.678 10.8164H106.637V10.931L102.108 16.7498L102.171 20.6554H99.592L99.5292 16.7498L95 10.931V10.8164H97.975L100.813 14.7259Z" fill="white"/>
<path d="M120.572 20.6396H118.472L115.901 15.145L113.594 20.6396H111.478L106.984 10.8165H109.881L111.372 14.1765L112.467 17.3389L114.94 10.8165H116.628L119.446 17.3507L120.384 14.1884L121.702 10.8125H124.595L120.572 20.6396Z" fill="white"/>
<path d="M133.943 18.9675H128.009L127.193 20.6554H124.414L129.465 10.8164H132.275L137.629 20.6554H134.834L133.943 18.9675ZM130.886 13.038L128.951 17.0305H132.935L130.886 13.038Z" fill="white"/>
<path d="M142.352 14.7259L145.213 10.8164H148.172V10.931L143.639 16.7498L143.706 20.6554H141.127L141.06 16.7498L136.523 10.931V10.8164H139.502L142.352 14.7259Z" fill="white"/>
<path d="M34.7329 41.0908C34.6081 41.0916 34.4864 41.0513 34.3863 40.976C34.2863 40.9008 34.2134 40.7947 34.1788 40.6739C34.1441 40.553 34.1496 40.4241 34.1944 40.3067C34.2391 40.1893 34.3208 40.0899 34.4268 40.0235C37.367 38.1633 39.789 35.5803 41.465 32.5175C43.141 29.4547 44.0158 26.0128 44.0072 22.5157C44.0006 22.4356 44.0106 22.355 44.0365 22.2791C44.0624 22.2031 44.1037 22.1333 44.1577 22.0742C44.2117 22.0151 44.2773 21.9679 44.3504 21.9357C44.4235 21.9034 44.5024 21.8867 44.5821 21.8867C44.6619 21.8867 44.7408 21.9034 44.8139 21.9357C44.8869 21.9679 44.9525 22.0151 45.0066 22.0742C45.0606 22.1333 45.1019 22.2031 45.1278 22.2791C45.1537 22.355 45.1637 22.4356 45.1571 22.5157C45.1661 26.2088 44.2421 29.8434 42.4721 33.0777C40.702 36.312 38.1441 39.0396 35.0391 41.0038C34.947 41.0609 34.841 41.0911 34.7329 41.0908Z" fill="url(#paint0_linear_2914_58048)"/>
<path d="M35.5924 5.66832C35.4743 5.66759 35.3592 5.63033 35.2627 5.56159C31.8067 3.12611 27.6907 1.81983 23.4727 1.81983C19.2548 1.81983 15.1388 3.12611 11.6827 5.56159C11.5578 5.64913 11.4035 5.68311 11.2537 5.65605C11.1039 5.629 10.971 5.54312 10.8841 5.41731C10.7971 5.2915 10.7634 5.13607 10.7903 4.98521C10.8171 4.83435 10.9024 4.70042 11.0273 4.61288C14.6764 2.04258 19.0218 0.664062 23.4747 0.664062C27.9276 0.664062 32.273 2.04258 35.9221 4.61288C36.0227 4.68308 36.0983 4.78389 36.1379 4.90052C36.1775 5.01716 36.179 5.1435 36.1421 5.26104C36.1053 5.37858 36.032 5.48115 35.9331 5.55373C35.8342 5.62631 35.7148 5.66508 35.5924 5.66437V5.66832Z" fill="url(#paint1_linear_2914_58048)"/>
<path d="M11.9504 40.9356C11.8401 40.9353 11.7322 40.9023 11.6404 40.8407C8.60496 38.8606 6.11075 36.1457 4.38572 32.9443C2.6607 29.7429 1.7599 26.1571 1.76565 22.5146C1.76565 22.3616 1.82602 22.2148 1.93348 22.1065C2.04095 21.9983 2.1867 21.9375 2.33867 21.9375C2.49064 21.9375 2.63639 21.9983 2.74385 22.1065C2.85131 22.2148 2.91168 22.3616 2.91168 22.5146C2.9067 25.9645 3.76008 29.3606 5.39387 32.3928C7.02766 35.4249 9.38977 37.9964 12.2644 39.8722C12.3692 39.9397 12.4493 40.0397 12.4927 40.1571C12.5361 40.2745 12.5404 40.4029 12.505 40.523C12.4695 40.6431 12.3962 40.7482 12.2962 40.8227C12.1962 40.8971 12.0748 40.9367 11.9504 40.9356Z" fill="url(#paint2_linear_2914_58048)"/>
<path d="M39.738 3.76706L38.0386 3.15434L38.8 4.80274C39.2396 5.75541 40.2993 8.75573 39.4594 10.1077C39.1611 10.5899 38.6038 10.8271 37.76 10.839C34.1727 10.8864 12.9162 10.8864 9.33287 10.839C8.48905 10.839 7.93173 10.5899 7.62952 10.1077C6.79355 8.77155 7.85324 5.75937 8.28889 4.80274L9.05029 3.15039L7.34694 3.76706C7.28022 3.78682 0.875 6.17838 0.875 12.7838C0.875 19.7134 6.78962 19.7925 7.04081 19.7925H11.099V30.7818L11.5975 30.9636C13.6018 31.6548 15.39 32.8655 16.7821 34.4739C17.2529 35.0362 17.6488 35.6582 17.9595 36.3239C17.5861 37.4631 17.1296 38.573 16.5937 39.6444L16.2915 40.1978L23.5248 46.1945L30.7778 40.2136L30.4756 39.6602C29.9397 38.5888 29.4832 37.4789 29.1098 36.3397C29.5023 35.4938 31.0722 32.5923 35.4836 30.9795L35.982 30.7976V19.7925H40.0403C40.2954 19.7925 46.2061 19.7134 46.2061 12.7838C46.2061 6.17838 39.8008 3.78682 39.738 3.76706ZM2.38996 12.7838C2.38996 9.19056 4.61138 7.09548 6.22446 6.06375C5.79666 7.54216 5.4866 9.55819 6.34613 10.9338C6.7386 11.5821 7.59028 12.3569 9.30933 12.3767C10.1845 12.3767 12.1234 12.4004 14.5999 12.4043C14.0505 14.5793 13.0019 16.594 11.5386 18.2864H7.04081C6.56591 18.2706 2.38996 18.1164 2.38996 12.7838ZM12.614 29.7224V23.1051C13.047 24.0104 13.6587 24.8174 14.4115 25.4769C15.5065 26.3663 16.9665 26.5956 18.195 26.5956C18.6832 26.5935 19.1709 26.5604 19.655 26.4968C19.6259 29.1478 19.2632 31.7843 18.5757 34.3435C17.0896 32.2396 15.0137 30.6305 12.614 29.7224ZM13.1124 20.2827C15.2632 21.35 17.8967 23.7139 19.0781 25.0262C17.9948 25.133 16.3857 25.1172 15.3613 24.287C14.176 23.3186 13.4539 21.4093 13.1124 20.2827ZM23.5405 44.222L18.2185 39.8183C20.2623 35.354 21.2677 30.4787 21.1582 25.5639V25.469C21.0169 24.4491 17.9203 21.7927 17.7868 21.682C16.7428 20.7847 14.9257 19.3695 13.2066 18.658C14.6206 16.8025 15.6303 14.6676 16.1698 12.3925C20.6755 12.3925 26.4174 12.3925 30.923 12.3925C31.4591 14.6687 32.4691 16.8044 33.8862 18.658C32.1632 19.3695 30.3539 20.7847 29.3021 21.682C29.1726 21.7927 26.0759 24.4491 25.9346 25.469V25.5559C25.823 30.4727 26.8257 35.3504 28.8664 39.8183L23.5405 44.222ZM33.6978 20.421C33.3054 21.6543 32.5675 23.4055 31.4882 24.2791C30.5305 25.0697 29.0548 25.1211 27.9834 25.0342C29.1137 23.789 31.5942 21.5476 33.6978 20.421ZM28.5093 34.3316C27.8182 31.7823 27.4515 29.1549 27.4182 26.5126C27.8261 26.5588 28.2362 26.5825 28.6467 26.5837C29.8751 26.5837 31.3351 26.3545 32.4301 25.465C33.3165 24.687 34.0179 23.7184 34.4828 22.6307V29.7224C32.0803 30.6253 30.0002 32.2303 28.5093 34.3316ZM40.0403 18.2706H35.5425C34.0825 16.5758 33.0344 14.562 32.4812 12.3885C34.9577 12.3885 36.8965 12.3885 37.7757 12.3609C39.4947 12.3609 40.3346 11.5703 40.7389 10.918C41.5984 9.54238 41.2883 7.53031 40.8605 6.04793C42.4736 7.09548 44.695 9.21033 44.695 12.768C44.6872 18.1164 40.5191 18.2706 40.0403 18.2706Z" fill="url(#paint3_linear_2914_58048)"/>
</g>
<defs>
<linearGradient id="paint0_linear_2914_58048" x1="36.4638" y1="2.79422" x2="42.2517" y2="54.1146" gradientUnits="userSpaceOnUse">
<stop stop-color="#C52D91"/>
<stop offset="1" stop-color="#314BA0"/>
</linearGradient>
<linearGradient id="paint1_linear_2914_58048" x1="23.3825" y1="4.26897" x2="29.1704" y2="55.5894" gradientUnits="userSpaceOnUse">
<stop stop-color="#C52D91"/>
<stop offset="1" stop-color="#314BA0"/>
</linearGradient>
<linearGradient id="paint2_linear_2914_58048" x1="4.29713" y1="6.41806" x2="10.0851" y2="57.7424" gradientUnits="userSpaceOnUse">
<stop stop-color="#C52D91"/>
<stop offset="1" stop-color="#314BA0"/>
</linearGradient>
<linearGradient id="paint3_linear_2914_58048" x1="22.6025" y1="4.36791" x2="28.4143" y2="55.9215" gradientUnits="userSpaceOnUse">
<stop stop-color="#C52D91"/>
<stop offset="1" stop-color="#314BA0"/>
</linearGradient>
<clipPath id="clip0_2914_58048">
<rect width="147.375" height="45.5385" fill="white" transform="translate(0.875 0.660156)"/>
</clipPath>
</defs>
</svg>
