<svg width="20" height="20" viewBox="0 0 20 20" fill="none" xmlns="http://www.w3.org/2000/svg">
<circle cx="10" cy="10" r="10" fill="#EFEEAF"/>
<path d="M10.7947 10.0921V9.90786L13.7602 6.585C13.8861 6.44386 13.9664 6.27213 13.9915 6.08994C14.0167 5.90774 13.9857 5.72263 13.9022 5.55629C13.8187 5.38996 13.6862 5.24928 13.5202 5.15076C13.3541 5.05223 13.1615 4.99994 12.9647 5H7.03526C6.83854 4.99994 6.64588 5.05223 6.47985 5.15076C6.31382 5.24928 6.1813 5.38996 6.09782 5.55629C6.01433 5.72263 5.98335 5.90774 6.00849 6.08994C6.03363 6.27213 6.11385 6.44386 6.23976 6.585L9.20527 9.90786V10.0921L6.23976 13.415C6.11385 13.5561 6.03363 13.7279 6.00849 13.9101C5.98335 14.0923 6.01433 14.2774 6.09782 14.4437C6.1813 14.61 6.31382 14.7507 6.47985 14.8492C6.64588 14.9478 6.83854 15.0001 7.03526 15H12.9647C13.1615 15.0001 13.3541 14.9478 13.5202 14.8492C13.6862 14.7507 13.8187 14.61 13.9022 14.4437C13.9857 14.2774 14.0167 14.0923 13.9915 13.9101C13.9664 13.7279 13.8861 13.5561 13.7602 13.415L10.7947 10.0921Z" fill="#14173E"/>
</svg>
