<svg width="169" height="22" viewBox="0 0 169 22" fill="none" xmlns="http://www.w3.org/2000/svg">
<g clip-path="url(#clip0_2914_58266)">
<path d="M125.962 7.50781L125.5 9.74009L127.593 9.74037L126.933 11.6178L125.108 11.6172L124.469 14.7653C124.254 15.7775 124.349 16.1056 124.856 16.1525L124.928 16.1572L125.001 16.1586C125.238 16.1586 125.427 16.1448 125.633 16.1065L125.791 16.0729L125.993 16.0257L126.028 17.7556L125.918 17.7995C125.329 18.0336 124.698 18.141 123.912 18.141C122.584 18.141 121.915 17.5143 121.915 16.4075C121.915 16.0689 121.95 15.6643 122.024 15.1677L122.087 14.7776L122.165 14.3505L122.209 14.1224L122.718 11.6172L121.672 11.6178L122.064 9.74037L123.108 9.74009L123.436 8.12079L125.962 7.50781Z" fill="white"/>
<path fill-rule="evenodd" clip-rule="evenodd" d="M114.818 9.96817C114.024 9.68299 113.151 9.53125 112.246 9.53125C109.061 9.53125 106.953 11.8927 106.953 15.1787C106.953 17.0587 107.948 18.1268 109.4 18.1268L109.58 18.1222L109.777 18.1063C110.363 18.0419 110.926 17.8274 111.437 17.4775L111.475 17.451L111.486 17.982L113.749 17.9117V17.7429L113.752 17.4623C113.764 16.8271 113.821 16.3179 113.962 15.6985L115.215 10.123L115.079 10.0681L114.818 9.96817ZM109.438 14.8488C109.438 12.902 110.456 11.4986 111.752 11.4986L111.894 11.501C112.122 11.5088 112.306 11.5361 112.457 11.5825L112.499 11.5971L111.66 15.4403L111.576 15.5512C111.258 15.9421 110.875 16.1594 110.46 16.1594C109.815 16.1594 109.438 15.7233 109.438 14.8488Z" fill="white"/>
<path d="M103.956 9.53125C105.412 9.53125 106.287 10.3763 106.287 11.6846C106.287 11.8655 106.277 12.0462 106.254 12.2485L106.22 12.5031C106.207 12.5924 106.191 12.6864 106.173 12.7868L106.113 13.1079L106.037 13.4747L105.138 17.9168H102.746L103.675 13.4037C103.746 13.0488 103.787 12.702 103.787 12.4494C103.787 11.7507 103.544 11.4986 102.896 11.4986C102.504 11.4986 102.117 11.6536 101.719 11.9816L101.65 12.041L101.645 12.1083C101.624 12.3466 101.588 12.6 101.535 12.8945L101.463 13.2693L101.421 13.4747L100.522 17.9168H98.1305L99.0585 13.405C99.1299 13.0388 99.1716 12.6605 99.1716 12.3894C99.1716 11.7304 98.9373 11.4986 98.28 11.4986C97.917 11.4986 97.5642 11.6253 97.2133 11.8917L97.1258 11.9617L95.8907 17.9168H93.5L95.1661 9.7957L97.6052 9.62065L97.5197 10.0387L97.5567 10.0189C98.0356 9.76453 98.5097 9.60834 98.9703 9.55344L99.1669 9.53619L99.34 9.53125C100.234 9.53125 100.893 9.82881 101.279 10.3779L101.348 10.4837L101.371 10.5243L101.4 10.5022C102.153 9.9443 102.881 9.62942 103.598 9.55087L103.777 9.53612L103.956 9.53125Z" fill="white"/>
<path d="M120.648 9.53125C121.029 9.53125 121.332 9.62316 121.553 9.7941L121.633 9.86186L121.711 9.93609L121.08 12.0603L120.924 12.0178C120.668 11.9482 120.394 11.9185 120.009 11.9185C119.54 11.9185 119.11 12.0738 118.74 12.3973L118.667 12.4654L117.532 17.9168H115.156L116.822 9.7957L119.265 9.62044L119.125 10.2613L119.134 10.2525C119.492 9.84961 119.921 9.61502 120.381 9.54996L120.519 9.53549L120.648 9.53125Z" fill="white"/>
<path d="M90.5986 5.09961C91.7811 5.09961 92.6613 5.41439 93.2256 6.05735C93.798 6.70491 94.0391 7.68378 93.9516 8.96677L93.932 9.19636L93.9172 9.35693H92.0363L92.0343 9.18043C92.0262 8.46745 91.8774 7.95038 91.6087 7.6508C91.3609 7.35698 90.903 7.20757 90.2282 7.20757C89.6423 7.20757 89.1985 7.30777 88.8672 7.51492C88.4739 7.74354 88.2382 8.12404 88.1473 8.67185C88.0705 9.13674 88.1991 9.49657 88.5446 9.76206L88.5837 9.79002L88.6315 9.82147L88.754 9.89417L88.9116 9.97961L89.1029 10.0771L89.3278 10.1859L89.5837 10.3053L90.0255 10.5032L90.4262 10.6776L90.7965 10.8454L91.1339 11.0062L91.2908 11.0839L91.4397 11.1596L91.7111 11.305L91.9488 11.4421C92.1326 11.5526 92.2794 11.654 92.3879 11.7449C93.167 12.4302 93.4559 13.38 93.2573 14.5826C93.066 15.737 92.5603 16.6596 91.7468 17.3288C90.9319 17.9836 89.8813 18.3184 88.6321 18.3184C87.4045 18.3184 86.4832 18.0088 85.8852 17.3822C85.1869 16.643 84.9148 15.517 85.0623 14.0119L85.0879 13.7833L85.1067 13.6277H86.9944L86.9849 13.8159C86.9398 14.7174 87.0779 15.3425 87.3856 15.6922C87.6759 16.0065 88.1897 16.1758 88.9278 16.1758C89.5938 16.1758 90.1568 16.0296 90.581 15.7537C91.0093 15.4603 91.2538 15.0997 91.3292 14.6422C91.4262 14.0597 91.237 13.6068 90.7568 13.2609L90.7225 13.2379L90.6794 13.2115L90.5662 13.1489L90.4187 13.0735L90.1359 12.9381L89.6497 12.7198L89.0497 12.4634L88.8544 12.3771L88.4914 12.2138L88.1661 12.0626L87.8772 11.9233L87.6247 11.7957L87.4078 11.6793L87.2267 11.574C87.1176 11.5074 87.0321 11.448 86.9694 11.3955C86.2751 10.7813 86.0287 9.88638 86.2199 8.73141C86.4098 7.58353 86.9331 6.67986 87.7903 6.03593C88.5904 5.40853 89.5217 5.09961 90.5986 5.09961Z" fill="white"/>
<path d="M43.3021 13.3387C43.2098 13.6005 43.104 13.857 42.9853 14.1071C42.8316 14.4319 42.6354 14.7333 42.4022 15.0027C42.1429 15.3003 41.8348 15.5483 41.4921 15.7351C41.094 15.9429 40.6523 16.0453 40.2064 16.033C39.2211 16.033 38.4745 15.7238 37.9859 15.1138C37.4974 14.5037 37.2798 13.6337 37.3514 12.5408C37.3968 11.8621 37.5273 11.1924 37.7399 10.5485C37.9432 9.91647 38.2403 9.32085 38.6205 8.78292C38.9817 8.27413 39.4395 7.84675 39.9658 7.52685C40.5138 7.2048 41.1354 7.04095 41.7658 7.05247C42.5812 7.05247 43.1965 7.26213 43.595 7.67484C43.9935 8.08754 44.1644 8.70131 44.112 9.50585L44.1019 9.65766H46.4345L46.4473 9.52957C46.5223 8.88429 46.4596 8.22982 46.2636 7.61222C46.0859 7.06731 45.7776 6.57775 45.3673 6.18913C44.9351 5.79896 44.4282 5.50708 43.8797 5.33244C43.2536 5.12878 42.6003 5.02856 41.9439 5.03549C41.1375 5.04029 40.3382 5.19353 39.5839 5.48803C38.7829 5.79817 38.0487 6.26782 37.423 6.87031C36.7369 7.54091 36.1825 8.34211 35.7903 9.22978C35.3559 10.1785 35.0933 11.3084 35.0097 12.593C34.9552 13.3155 35.028 14.0423 35.2246 14.7381C35.4062 15.3803 35.7215 15.9738 36.1484 16.477C36.5923 16.9848 37.1421 17.3815 37.7564 17.6373C38.3992 17.9162 39.1642 18.0576 40.0246 18.0576C40.6338 18.0585 41.2397 17.9644 41.8217 17.7787C42.4034 17.5929 42.9494 17.304 43.4352 16.9248C43.9447 16.5211 44.3849 16.0316 44.7374 15.4771C45.134 14.8451 45.4344 14.154 45.6282 13.4279L45.6787 13.2457H43.3369L43.3021 13.3387Z" fill="white"/>
<path d="M138.341 13.3395C138.249 13.6014 138.142 13.8579 138.023 14.108C137.869 14.4327 137.673 14.7341 137.44 15.0036C137.181 15.302 136.873 15.551 136.53 15.7388C136.132 15.9463 135.69 16.0487 135.244 16.0367C134.259 16.0367 133.512 15.7275 133.024 15.1174C132.535 14.5074 132.318 13.6374 132.389 12.5445C132.435 11.8658 132.565 11.1961 132.778 10.5522C132.982 9.9203 133.279 9.32476 133.658 8.78662C134.019 8.27783 134.477 7.85045 135.004 7.53048C135.551 7.20861 136.174 7.04478 136.803 7.05616C137.619 7.05616 138.234 7.26582 138.633 7.67853C139.032 8.09124 139.203 8.70501 139.15 9.50955L139.141 9.66136H141.474L141.485 9.53327C141.56 8.88792 141.498 8.23352 141.302 7.61592C141.124 7.071 140.816 6.58144 140.406 6.19282C139.974 5.79986 139.467 5.50534 138.919 5.32854C138.292 5.1248 137.639 5.02458 136.982 5.03159C136.176 5.03638 135.377 5.18962 134.623 5.48413C133.821 5.79426 133.087 6.26391 132.462 6.86641C131.775 7.53716 131.221 8.33829 130.829 9.2259C130.395 10.1746 130.132 11.3045 130.049 12.5891C129.994 13.3116 130.067 14.0383 130.264 14.7341C130.445 15.3763 130.761 15.9698 131.187 16.4731C131.631 16.9811 132.182 17.3779 132.796 17.6334C133.439 17.9123 134.203 18.0537 135.065 18.0537C135.673 18.0545 136.279 17.9604 136.861 17.7748C137.443 17.589 137.989 17.3 138.474 16.9209C138.984 16.5174 139.424 16.0279 139.777 15.4732C140.173 14.8412 140.474 14.1501 140.667 13.424L140.717 13.2418H138.376L138.341 13.3395Z" fill="white"/>
<path d="M146.527 9.80414C145.936 9.80414 145.277 10.0024 144.605 10.38L145.383 6.625L143.099 6.78913L140.887 17.5969L140.852 17.7696H143.089L144.265 12.0261C144.637 11.7758 145.071 11.6408 145.514 11.6371C146.158 11.6371 146.417 11.9027 146.417 12.5545C146.409 12.839 146.374 13.1219 146.31 13.3988L145.415 17.7696H147.653L148.521 13.544C148.668 12.8173 148.733 12.4103 148.733 11.9245C148.731 10.5973 147.908 9.80414 146.527 9.80414Z" fill="white"/>
<path fill-rule="evenodd" clip-rule="evenodd" d="M154.393 9.80474C155.315 9.80133 156.23 9.9747 157.092 10.3161L157.205 10.3626L156.011 15.6697C155.864 16.3111 155.795 16.969 155.807 17.6279V17.7664L153.69 17.8319L153.678 17.3063C153.092 17.7346 152.393 17.9664 151.675 17.9704C150.553 17.9704 149.359 17.237 149.359 15.1773C149.359 12.0143 151.43 9.80474 154.393 9.80474ZM153.866 15.4041L154.663 11.7392C154.424 11.6629 154.174 11.6283 153.925 11.6367C152.652 11.6367 151.691 13.0238 151.691 14.8624C151.691 15.6849 152.048 16.1384 152.69 16.1384C153.131 16.1384 153.524 15.8908 153.866 15.4041Z" fill="white"/>
<path d="M159.995 9.03111C160.334 9.03779 160.672 9.01559 161.006 8.96473L161.098 8.94574L161.505 6.95342L161.372 6.92306C160.982 6.83294 159.778 6.83294 159.359 6.92306L159.267 6.94203L158.859 8.93433L158.993 8.96473C159.325 9.0174 159.66 9.03966 159.995 9.03111Z" fill="white"/>
<path d="M158.582 10.0821L157 17.7952H159.222L160.866 9.91797L158.582 10.0821Z" fill="white"/>
<path d="M166.126 9.80469C165.553 9.80469 164.904 10.0021 164.238 10.3739L164.347 9.89005L162.06 10.0533L160.477 17.7701H162.7L163.85 12.1992C164.249 11.8264 164.677 11.6376 165.112 11.6376C165.733 11.6376 165.987 11.9033 165.987 12.555C165.975 12.7976 165.944 13.0388 165.894 13.2761L164.976 17.7701H167.213L168.083 13.5446C168.239 12.7656 168.308 12.3776 168.308 11.9251C168.317 10.5978 167.498 9.80469 166.126 9.80469Z" fill="white"/>
<path fill-rule="evenodd" clip-rule="evenodd" d="M46.1953 14.8623C46.1953 11.9317 48.143 9.80469 50.8272 9.80469C52.8062 9.80469 54.0854 11.0257 54.0854 12.9137C54.0854 15.7968 52.1 17.9703 49.4682 17.9703C47.8391 17.9703 46.1953 17.0093 46.1953 14.8623ZM49.7455 16.1384C50.8732 16.1384 51.7566 14.8282 51.7566 13.1575C51.7566 11.835 50.9916 11.6376 50.5362 11.6376C49.4149 11.6376 48.5379 12.9402 48.5379 14.6043C48.5379 15.9391 49.2946 16.1384 49.7455 16.1384Z" fill="white"/>
<path d="M55.762 10.0821L54.1797 17.7952H56.403L58.0459 9.91797L55.762 10.0821Z" fill="white"/>
<path d="M57.1759 9.03111C57.5139 9.03779 57.8517 9.01559 58.1861 8.96473L58.2779 8.94574L58.6856 6.95342L58.5525 6.92306C58.1613 6.83294 56.9574 6.83294 56.5387 6.92306L56.4468 6.94203L56.0391 8.93433L56.1723 8.96473C56.5043 9.0174 56.8402 9.03966 57.1759 9.03111Z" fill="white"/>
<path d="M63.3517 9.87891C62.7786 9.87891 62.1303 10.0753 61.4636 10.4481L61.5729 9.96427L59.2854 10.1284L57.7031 17.8415H59.9264L61.078 12.2706C61.4765 11.8978 61.9045 11.709 62.3388 11.709C62.9605 11.709 63.2139 11.9746 63.2139 12.6274C63.2028 12.8696 63.1721 13.1105 63.1221 13.3475L62.2038 17.8415H64.4417L65.3105 13.6159C65.4675 12.838 65.5355 12.449 65.5355 11.9964C65.54 10.6711 64.7218 9.87891 63.3517 9.87891Z" fill="white"/>
<path d="M68.8317 13.2309H72.6877L73.3093 11.3695H69.2095L69.7334 8.81744H74.1168L74.7383 6.95703H67.8454L65.6094 17.8445H72.3409L72.9787 15.9831H68.266L68.8317 13.2309Z" fill="white"/>
<path d="M79.8488 10.0801L78.2582 12.2716L77.5335 10.0801H74.9105L76.6742 13.7668L73.1172 17.8444H75.7678L77.5517 15.5409L78.5087 17.8444H80.9889L79.0717 13.9851L82.5472 10.0801H79.8488Z" fill="white"/>
<path d="M20.2266 5.58515C22.4335 5.09291 24.701 6.09166 25.8853 8.07758C27.0696 10.0635 26.9132 12.605 25.4951 14.42C24.077 16.235 21.7052 16.9291 19.5764 16.1521C17.4476 15.3751 16.0242 13.2959 16.0244 10.9635H11.3125C11.3088 15.6229 14.3094 19.7147 18.6523 20.9722C22.9951 22.2297 27.6171 20.345 29.958 16.3623C32.2989 12.3795 31.7857 7.27355 28.7026 3.87263C25.6196 0.471715 20.7215 -0.391607 16.7214 1.76087C18.1867 2.70552 19.3934 4.0221 20.2266 5.58515Z" fill="#5F5FFF"/>
<path d="M11.8244 16.3387C9.61759 16.8309 7.35013 15.8322 6.16584 13.8465C4.98154 11.8607 5.13775 9.31927 6.55565 7.50423C7.97354 5.68917 10.3451 4.99484 12.4739 5.77149C14.6028 6.54814 16.0264 8.62702 16.0266 10.9594H20.7386C20.7422 6.29993 17.7416 2.2082 13.3988 0.950706C9.05588 -0.306778 4.43393 1.57781 2.09303 5.56058C-0.247873 9.54336 0.265328 14.6494 3.34836 18.0503C6.43139 21.4512 11.3295 22.3145 15.3296 20.162C13.8645 19.2176 12.6578 17.9013 11.8244 16.3387Z" fill="#17E5AA"/>
</g>
<defs>
<clipPath id="clip0_2914_58266">
<rect width="167.684" height="20.8718" fill="white" transform="translate(0.632812 0.564453)"/>
</clipPath>
</defs>
</svg>
